<svg version="1.1" id="Layer_1" xmlns="http://www.w3.org/2000/svg" xmlns:xlink="http://www.w3.org/1999/xlink" x="0px" y="0px"
	 width="100%" viewBox="0 0 1024 672" enable-background="new 0 0 1024 672" xml:space="preserve">
<path fill="#000000" opacity="1.000000" stroke="none" 
	d="
M214.483154,208.936188 
	C216.610260,204.025787 219.265106,203.587051 221.836304,207.547867 
	C223.644943,210.333969 225.334274,213.261749 226.591873,216.325348 
	C228.229950,220.315933 231.391022,219.762344 234.531631,219.595810 
	C238.010483,219.411331 237.444824,216.598923 237.839035,214.415024 
	C238.311417,211.798065 238.680084,209.154816 239.312759,206.576736 
	C239.806473,204.564850 241.253555,203.468674 243.410416,203.769196 
	C245.614090,204.076263 246.557526,205.603256 246.446823,207.660812 
	C246.321945,209.981750 245.906586,212.285614 245.672577,214.602448 
	C245.200485,219.276489 243.927124,223.708801 246.897369,228.460190 
	C249.753372,233.028839 248.095901,237.642044 243.457047,241.143600 
	C241.229050,242.825363 240.000076,244.492996 240.302536,247.336594 
	C241.847504,261.861420 244.057495,276.282410 246.733704,291.533295 
	C294.257080,265.656433 343.502106,259.254211 395.115997,276.653870 
	C396.162048,271.183929 395.960846,266.493988 395.530396,261.933594 
	C394.635223,252.450378 394.712982,242.963074 394.647095,233.471588 
	C394.622559,229.936127 393.755341,227.127243 390.685303,224.857285 
	C387.377716,222.411682 385.601288,218.475464 387.088928,214.679337 
	C388.700165,210.567886 387.510529,207.290756 386.218414,203.706345 
	C385.485931,201.674316 384.933350,199.575531 384.344055,197.494263 
	C383.543060,194.665283 383.593872,191.835892 386.934692,190.994797 
	C390.463501,190.106354 391.359283,193.074921 392.176636,195.683197 
	C392.524414,196.792984 392.713989,197.953003 393.073303,199.058380 
	C393.927979,201.687927 394.210144,204.517731 398.193451,204.751556 
	C402.171539,204.985077 404.984222,204.257294 406.325287,200.120911 
	C406.988159,198.076279 408.081299,196.165848 409.036774,194.222733 
	C410.113678,192.032593 411.795288,190.714493 414.268921,191.730713 
	C416.744873,192.747879 417.134705,194.935684 416.212433,197.173706 
	C414.818451,200.556381 413.223938,203.861526 411.597382,207.141479 
	C410.517242,209.319565 410.214752,211.371475 410.813843,213.847885 
	C412.233185,219.714905 410.707642,223.529449 405.526001,226.539688 
	C402.962982,228.028625 402.109650,229.778320 402.194946,232.551834 
	C402.645477,247.197784 403.039764,261.845795 403.364319,276.495056 
	C403.431396,279.522980 405.175323,280.749115 407.645996,281.903229 
	C416.125977,285.864471 424.236725,290.451996 431.034210,297.038757 
	C431.751892,297.734161 432.525330,298.377136 433.198425,299.112579 
	C437.941498,304.295166 442.384277,309.926758 439.617493,317.373352 
	C436.966553,324.508087 429.934540,325.316925 423.491913,326.347137 
	C409.339844,328.610199 395.065735,329.648773 380.763336,330.343781 
	C379.088867,330.425171 377.457642,330.586426 375.841614,331.999695 
	C378.547852,340.488708 381.425201,348.977997 383.958893,357.568665 
	C390.142944,378.535980 393.883698,399.982819 396.098022,421.708191 
	C396.366699,424.344360 396.101379,427.170258 392.856812,427.484131 
	C388.679169,427.888275 388.164764,424.490692 387.923462,421.424011 
	C386.707092,405.966583 384.300354,390.704865 380.716156,375.620422 
	C377.555817,362.319977 373.615021,349.269775 368.855774,336.446686 
	C367.412781,332.558807 365.352509,331.088318 361.110809,331.322876 
	C341.826782,332.389343 322.527466,333.187592 303.229889,333.991974 
	C299.908691,334.130371 295.126343,335.309540 295.055420,330.212646 
	C294.986023,325.223175 299.850159,326.070496 303.158813,326.017334 
	C338.474457,325.449799 373.708313,323.295288 408.913116,320.614960 
	C414.709320,320.173706 420.531219,319.470581 426.213013,318.277710 
	C433.311737,316.787354 434.573730,312.922363 430.095673,307.205017 
	C423.774811,299.134918 415.384552,293.660706 406.199219,289.532379 
	C361.686218,269.526184 316.850769,269.890533 271.821381,287.816589 
	C265.000885,290.531799 258.470917,293.847534 251.968048,297.239288 
	C248.813766,298.884491 247.923950,301.189575 248.457016,304.604126 
	C251.406296,323.495728 254.331436,342.395264 256.008789,361.453979 
	C256.358612,365.428680 256.242920,369.444153 256.346375,373.440735 
	C256.460144,377.834686 254.324951,380.456787 249.981689,380.859833 
	C246.053024,381.224335 242.669937,378.029175 242.749527,373.640564 
	C242.906372,364.992218 243.556061,356.354156 243.861954,347.706909 
	C244.357666,333.694489 242.822449,319.850952 240.403305,305.664307 
	C235.574814,307.184601 232.590454,310.621460 229.383057,313.561615 
	C209.662415,331.639069 199.115387,354.591980 194.383652,380.508148 
	C191.842545,394.426056 190.046906,408.452301 189.298447,422.593170 
	C189.158295,425.241394 188.272293,427.348938 185.379379,427.411011 
	C182.277771,427.477539 181.540878,425.147003 181.707809,422.581055 
	C183.915634,388.642487 187.633316,355.101257 208.067047,326.151855 
	C215.340012,315.847900 224.153091,307.007355 234.518280,299.854706 
	C238.025223,297.434692 239.397034,294.782043 238.629135,290.687958 
	C235.896957,276.121399 234.145554,261.415955 232.700989,246.676071 
	C232.464417,244.262146 231.032394,243.330505 229.218552,242.301102 
	C223.240082,238.908142 221.085953,234.515472 222.290131,227.796814 
	C222.650894,225.784012 222.108994,224.295044 221.248367,222.618958 
	C218.974747,218.191025 215.921219,214.155014 214.483154,208.936188 
z"/>
<path fill="#000000" opacity="1.000000" stroke="none" 
	d="
M543.522339,241.953583 
	C542.800232,239.863419 542.156799,238.176941 541.573975,236.649277 
	C543.191833,234.275040 545.441956,234.668411 547.247681,234.941177 
	C557.673218,236.515991 565.507324,232.575424 572.997498,225.343674 
	C583.145752,215.545624 595.169373,208.342636 609.273438,205.255020 
	C619.089905,203.106003 628.464600,204.052719 637.327820,208.927231 
	C639.497070,210.120239 641.696106,211.350601 643.083374,214.362228 
	C638.943604,216.620377 634.876953,219.078705 631.732178,222.736954 
	C630.517700,224.149719 629.010925,223.454041 627.713379,222.467850 
	C622.988037,218.876434 617.558716,218.468094 611.988770,219.284912 
	C600.541077,220.963654 590.746094,226.216797 581.481079,232.986237 
	C583.214111,235.569046 585.231323,234.792542 586.899170,234.821411 
	C594.062317,234.945358 601.228943,234.965012 608.392944,234.889679 
	C611.501770,234.856979 613.168091,236.124146 613.054810,239.277359 
	C612.908508,243.353897 613.895203,247.530289 612.043579,252.141251 
	C606.825439,249.461807 601.353149,250.000687 595.926331,249.881500 
	C592.255920,249.800873 590.818115,251.456558 590.934631,255.004486 
	C591.071350,259.166412 591.075684,263.335144 591.028503,267.499725 
	C590.995850,270.385590 592.126343,271.667328 595.173462,271.727753 
	C598.845642,271.800568 602.397034,271.274628 606.536133,270.123383 
	C607.810913,275.988861 607.264893,281.474792 606.965454,287.238068 
	C602.953308,287.537018 599.519592,285.874756 595.869751,286.234161 
	C592.619202,286.554199 590.982361,287.821808 591.028137,291.184906 
	C591.098328,296.349304 591.100708,301.516052 591.028198,306.680389 
	C590.986755,309.630615 592.288696,310.881287 595.238342,310.868652 
	C601.034546,310.843872 606.858643,311.326569 612.838745,308.910217 
	C613.903381,313.965485 613.282471,318.593292 613.285950,323.178619 
	C613.287354,325.056854 611.952271,325.856323 610.309387,325.856476 
	C597.985718,325.857727 585.661865,325.802399 573.338623,325.704895 
	C572.776245,325.700470 572.218384,325.122406 571.392761,324.664062 
	C575.239807,317.221588 573.865479,309.322815 573.934204,301.602478 
	C574.089966,284.107697 574.026978,266.610992 574.041199,249.115051 
	C574.042603,247.450241 574.036865,245.779190 573.901978,244.121826 
	C573.635010,240.840729 572.246765,239.565903 568.976746,241.330139 
	C563.467896,244.302216 559.896790,248.169907 560.349121,255.092926 
	C561.599182,274.227020 560.672607,293.399719 560.937866,312.554474 
	C560.996338,316.782837 561.761414,320.740295 564.364258,325.260071 
	C556.101013,326.332764 548.722778,326.314392 540.887268,325.338623 
	C545.921570,313.303192 543.032959,301.542114 543.704712,290.027100 
	C543.796387,288.456146 543.391724,286.719421 541.538940,286.616028 
	C537.558350,286.393799 533.538696,286.260895 529.574280,286.579346 
	C527.038330,286.783020 527.471069,289.374939 527.527771,291.031342 
	C527.912048,302.242188 525.464661,313.687683 530.858215,325.425598 
	C522.810669,326.138184 515.464233,326.561981 507.162903,325.243317 
	C512.467773,316.409851 510.609467,307.602844 510.750641,299.058838 
	C510.979065,285.232330 510.919189,271.398590 510.793365,257.569641 
	C510.727661,250.343552 512.176270,242.906525 507.249481,235.618210 
	C515.511780,234.553406 522.599548,234.477875 530.430115,235.637192 
	C525.827454,245.868042 527.908142,256.096344 527.339478,266.123627 
	C527.117004,270.046631 528.290588,271.858826 532.643494,271.749603 
	C545.143799,271.435852 543.678223,272.845123 543.791199,260.844238 
	C543.849182,254.683060 543.671936,248.519653 543.522339,241.953583 
z"/>
<path fill="#000000" opacity="1.000000" stroke="none" 
	d="
M849.881897,419.300079 
	C845.689880,418.980225 841.838379,420.060059 839.146301,418.900635 
	C840.829895,392.239410 839.683533,366.157806 839.826965,340.104187 
	C839.845032,336.816650 838.388977,333.984314 835.843445,331.794739 
	C834.877930,330.964325 833.447571,330.418854 833.830750,328.774597 
	C834.270813,327.752167 835.144043,327.709686 835.957214,327.710999 
	C843.287842,327.722717 850.681274,327.163025 857.936096,327.921143 
	C873.240173,329.520325 882.740479,338.608551 886.918762,353.085602 
	C892.401917,372.083557 892.539612,391.303253 886.623779,410.173737 
	C878.138550,437.239868 854.694092,448.926971 826.390076,440.703369 
	C819.678345,438.753235 813.101929,436.338989 806.454346,434.165680 
	C800.091125,432.085297 793.744995,431.641998 787.443970,434.450928 
	C786.849548,434.715881 786.183960,434.857208 785.536255,434.950134 
	C785.251221,434.991058 784.928162,434.766602 783.811401,434.386810 
	C788.039124,427.578186 794.141785,424.196136 801.467834,422.863098 
	C807.441223,421.776154 813.414917,422.412201 819.249878,424.133881 
	C823.082581,425.264740 826.930542,426.347504 830.742676,427.544037 
	C851.520508,434.066040 868.107300,420.449219 871.876526,403.451080 
	C875.243652,388.266235 875.465576,373.099548 871.531860,357.994507 
	C870.119629,352.571930 867.712097,347.625641 862.644836,344.594604 
	C858.277100,341.981964 856.068665,343.122040 856.050110,348.123596 
	C855.975830,368.118683 856.052551,388.114319 855.962463,408.109283 
	C855.946411,411.669922 857.536865,414.808380 858.272949,418.173767 
	C855.656067,420.063019 852.906067,418.977173 849.881897,419.300079 
z"/>
<path fill="#000000" opacity="1.000000" stroke="none" 
	d="
M476.104553,344.091248 
	C476.120789,362.901001 476.150574,381.224762 476.160248,399.548523 
	C476.168152,414.506622 466.156891,424.289551 450.830200,424.330048 
	C435.078156,424.371643 425.702026,415.243774 425.674347,399.786591 
	C425.647522,384.794373 425.766846,369.801086 425.621277,354.810242 
	C425.539581,346.399567 426.934387,337.835510 422.811707,329.149139 
	C430.371552,329.149139 437.194183,329.149139 443.893890,329.149139 
	C440.433655,352.440277 442.860718,375.682037 442.299072,398.846619 
	C442.131226,405.769226 445.451172,409.189331 451.163300,408.934753 
	C455.109192,408.758911 457.846771,406.881714 458.703400,402.928040 
	C459.228302,400.505127 459.612823,397.997559 459.623138,395.526154 
	C459.697479,377.702362 459.615814,359.877930 459.690338,342.054108 
	C459.708008,337.832794 458.776550,333.851715 456.852692,329.218445 
	C464.539001,328.691864 471.558716,327.281311 479.526123,329.391876 
	C476.367218,334.012482 475.996826,338.765411 476.104553,344.091248 
z"/>
<path fill="#000000" opacity="1.000000" stroke="none" 
	d="
M501.367676,404.718323 
	C501.355621,409.683685 502.665619,413.995544 503.680237,419.599884 
	C494.021027,416.694366 489.562012,423.447113 484.270874,428.894836 
	C482.578308,430.637482 480.381561,432.129028 477.210510,430.931732 
	C478.255585,427.227753 480.200806,424.024597 482.572571,421.163574 
	C486.278015,416.693817 487.751923,411.656067 487.720215,405.924194 
	C487.627228,389.101379 487.587616,372.276794 487.750488,355.455048 
	C487.788391,351.537476 486.539398,347.994324 485.463470,343.868011 
	C490.517548,342.252075 495.453003,342.886719 500.316925,343.295135 
	C502.499084,343.478363 502.766144,345.709473 503.419800,347.406616 
	C506.828705,356.256927 510.261169,365.098297 513.723633,373.927795 
	C514.073853,374.820892 514.679993,375.613647 515.884521,376.381897 
	C516.357971,365.659698 518.044617,354.975098 514.476196,343.886871 
	C520.795837,342.412445 526.726562,342.730865 532.382385,343.508148 
	C529.803467,368.814117 530.873718,393.598022 531.683289,418.810913 
	C528.152588,419.930634 524.006836,419.245300 519.921570,419.191101 
	C517.625977,419.160675 517.138000,417.143372 516.464111,415.442963 
	C512.845581,406.312286 509.254639,397.170532 505.579254,388.062805 
	C504.847565,386.249664 504.502869,384.201721 502.561554,382.435730 
	C500.727936,389.837646 501.613403,397.085175 501.367676,404.718323 
z"/>
<path fill="#000000" opacity="1.000000" stroke="none" 
	d="
M737.356018,401.945312 
	C737.250671,407.742035 737.305481,413.034149 739.297424,418.266205 
	C734.969177,420.030121 730.983704,419.234802 727.096741,419.123016 
	C724.617249,419.051697 724.174927,416.699005 723.476562,414.868011 
	C719.857788,405.379578 716.285889,395.873260 712.671265,386.383240 
	C712.031799,384.704498 711.267151,383.073425 710.191650,381.491425 
	C709.578247,393.822510 707.818054,406.126038 711.811096,418.971069 
	C705.535889,419.502991 699.717529,419.453430 694.601379,419.073334 
	C696.537842,393.818512 695.929626,369.091248 695.096069,343.492950 
	C698.495728,342.496857 703.250061,342.823120 707.968323,343.388397 
	C710.165344,343.651611 710.456909,345.846924 711.092590,347.524902 
	C714.629028,356.860474 718.132690,366.208496 721.673645,375.542389 
	C722.011963,376.434174 722.529724,377.257904 723.430298,378.039124 
	C723.441895,366.850220 725.232788,355.663910 722.121338,343.724060 
	C727.992554,342.703064 733.827026,342.421692 739.644897,343.904541 
	C735.341370,363.253967 738.247192,382.432373 737.356018,401.945312 
z"/>
<path fill="#000000" opacity="1.000000" stroke="none" 
	d="
M590.927795,373.000000 
	C590.937073,367.670227 590.916992,362.840210 590.959045,358.010742 
	C590.999451,353.372253 591.113342,348.733185 588.338440,343.998901 
	C595.293152,342.454498 601.417969,342.808777 608.204285,343.505737 
	C605.078857,351.852417 606.429749,359.993134 606.080383,368.031708 
	C605.943542,371.180389 606.791870,373.154510 610.482239,373.065765 
	C613.771912,372.986603 616.975830,373.282898 617.284607,368.645966 
	C617.827942,360.484375 618.061096,352.364624 614.965210,343.925232 
	C621.498901,342.199493 627.775146,343.059387 633.308960,343.381256 
	C631.525330,368.756134 631.873596,393.463501 633.045593,419.066956 
	C627.874268,419.450714 621.629211,419.551361 614.453613,418.829254 
	C619.085327,409.823639 617.287170,400.931335 617.590088,392.217438 
	C617.739685,387.912476 616.069275,386.030060 611.370239,386.064575 
	C606.551208,386.100006 605.803894,388.476288 606.043945,392.309631 
	C606.580200,400.876770 604.718384,409.605194 608.391235,418.879303 
	C601.717468,419.633453 595.595947,419.341858 589.195068,419.059235 
	C592.495850,403.615784 590.292786,388.511749 590.927795,373.000000 
z"/>
<path fill="#000000" opacity="1.000000" stroke="none" 
	d="
M774.645569,363.874908 
	C774.441650,362.170288 774.304688,360.845001 774.005432,359.557373 
	C773.425232,357.059967 772.078796,355.314667 769.264038,355.276215 
	C766.524231,355.238770 764.781616,356.801575 764.179077,359.244537 
	C763.347778,362.614563 762.490479,366.078827 762.424011,369.517822 
	C762.227844,379.652649 761.749329,389.804230 763.224854,399.916321 
	C763.775146,403.686951 764.828979,407.364655 769.059326,407.319061 
	C773.679260,407.269348 774.609558,403.317749 774.696655,399.376831 
	C774.729675,397.879608 774.595947,396.371613 774.726440,394.885040 
	C775.063660,391.043152 773.976868,388.604218 769.373901,389.436737 
	C768.094910,385.695251 768.669495,382.100739 768.907837,378.096863 
	C776.007446,378.096863 782.996033,378.096863 789.967896,378.096863 
	C789.107605,391.755280 788.701904,404.976807 790.319214,418.519897 
	C786.111816,419.802155 782.105286,420.360382 779.042297,415.878021 
	C775.254089,418.533813 771.579834,420.604645 766.931152,420.338623 
	C759.455200,419.910828 753.925110,416.713196 750.669556,409.861755 
	C748.791443,405.909180 747.696289,401.709961 747.336609,397.386597 
	C746.244812,384.263580 745.607117,371.106079 748.888977,358.186951 
	C751.940857,346.173187 762.002014,340.050171 773.898926,342.558990 
	C783.170166,344.514099 790.155212,354.232574 789.191040,363.740173 
	C789.042542,365.204437 788.614502,366.526306 787.171143,366.839355 
	C783.016846,367.740417 778.976990,369.366821 774.756470,369.313232 
	C773.367981,367.437561 774.847534,365.860291 774.645569,363.874908 
z"/>
<path fill="#000000" opacity="1.000000" stroke="none" 
	d="
M640.489685,415.770508 
	C644.614868,403.696594 646.242432,391.470551 648.551514,379.420532 
	C650.699890,368.209412 654.361816,357.184387 653.648071,345.528534 
	C653.539551,343.756195 654.787842,343.151917 656.200439,343.136292 
	C661.520447,343.077393 666.842896,343.085449 672.161804,343.196228 
	C673.557922,343.225281 674.801086,343.898926 674.647888,345.663818 
	C673.620422,357.501465 677.873047,368.581879 679.649658,380.011261 
	C681.204956,390.016968 683.329224,399.937775 685.360779,409.863647 
	C685.944946,412.718048 687.078674,415.459961 688.170776,418.919830 
	C681.846802,419.549530 676.010681,419.430115 669.534058,419.012360 
	C670.687134,414.080048 671.661072,409.365021 668.903015,405.273987 
	C667.585693,403.319946 664.874329,404.092560 662.777100,404.091431 
	C657.270569,404.088470 656.869873,405.225281 657.404602,418.849976 
	C652.227783,419.710754 646.967285,419.348938 641.732117,419.084991 
	C639.881897,418.991669 639.785645,417.615143 640.489685,415.770508 
M662.048462,379.333008 
	C661.524902,382.283813 660.923462,385.223633 660.505005,388.189270 
	C660.225220,390.172058 661.266052,391.371033 663.254456,391.617035 
	C665.105286,391.845978 666.813965,391.460327 666.783386,389.206970 
	C666.702148,383.218323 665.964050,377.319275 664.115234,370.782532 
	C662.317505,373.829529 662.401123,376.197113 662.048462,379.333008 
z"/>
<path fill="#000000" opacity="1.000000" stroke="none" 
	d="
M468.941528,263.016907 
	C468.941498,261.188721 468.939972,259.857300 468.943146,258.525848 
	C468.964600,249.603226 466.444275,247.917084 457.739746,251.025726 
	C456.966736,251.301788 456.182526,251.546539 454.712555,252.035797 
	C453.255737,246.872971 453.513916,241.854233 454.412079,236.897598 
	C454.750427,235.030289 456.772217,234.854858 458.529205,234.857193 
	C471.344238,234.874252 484.159332,234.891647 496.974213,234.846161 
	C499.841705,234.835983 501.441193,235.958008 501.274048,238.954971 
	C501.038513,243.178192 502.019989,247.493942 500.512726,251.959396 
	C497.756317,251.155777 495.291229,250.147552 492.731506,249.752151 
	C487.690277,248.973465 485.943390,250.477386 485.936432,255.526779 
	C485.909760,274.832489 486.025146,294.138550 485.961304,313.444000 
	C485.948273,317.387787 487.371399,320.868530 489.145630,325.266083 
	C481.245148,326.362244 473.888702,326.471344 466.865295,325.691437 
	C470.708801,306.902893 468.081268,288.625458 468.920441,270.503143 
	C469.028107,268.177948 468.939789,265.843689 468.941528,263.016907 
z"/>
<path fill="#000000" opacity="1.000000" stroke="none" 
	d="
M582.362305,401.158539 
	C580.622375,413.489105 574.519836,419.653809 563.838318,420.267761 
	C552.683960,420.908875 544.726257,415.270172 542.132935,403.796021 
	C538.675537,388.498535 538.515076,373.059692 542.725281,357.821320 
	C545.741760,346.903412 553.684326,341.104706 563.903015,341.871429 
	C574.437317,342.661896 580.698059,349.133240 582.252258,360.837891 
	C583.188232,367.886932 583.198059,367.935028 575.994995,369.400116 
	C573.288330,369.950684 570.738098,371.518341 567.720276,370.878479 
	C567.720276,367.850128 567.827148,364.919769 567.691406,362.000732 
	C567.543518,358.820770 566.632263,355.834625 562.904907,355.428772 
	C559.349182,355.041595 557.813538,357.658051 557.298889,360.617828 
	C554.885925,374.494995 554.522644,388.398712 557.377502,402.271088 
	C557.936340,404.986908 559.628967,406.845856 562.539795,406.803040 
	C565.794434,406.755188 567.339355,404.445709 567.544067,401.577698 
	C567.824585,397.647186 567.614258,393.681610 567.614258,389.325592 
	C572.328125,389.203491 576.814819,390.612976 580.978088,392.281464 
	C585.048340,393.912659 582.380432,397.794250 582.362305,401.158539 
z"/>
<path fill="#000000" opacity="1.000000" stroke="none" 
	d="
M827.669678,343.050232 
	C831.261963,343.092163 832.677917,344.627533 832.395508,347.769104 
	C832.102356,351.029663 832.960876,354.388184 831.439331,358.200623 
	C827.082336,356.041901 822.460510,356.231934 817.831604,356.258514 
	C815.092529,356.274261 813.729370,357.630310 813.697815,360.142090 
	C813.656128,363.456848 813.885254,366.779694 814.110046,370.091461 
	C814.269958,372.447418 815.957825,373.114349 817.978210,373.000824 
	C820.606812,372.853119 823.225586,372.531403 826.411804,372.231598 
	C827.958618,377.017334 827.101562,381.801056 826.943359,386.338715 
	C826.000122,386.705414 825.672668,386.965515 825.390381,386.923370 
	C813.894775,385.207672 813.894287,385.204193 813.928589,396.574738 
	C813.933594,398.238312 814.014771,399.904236 813.951660,401.564880 
	C813.829712,404.771240 815.389832,405.988159 818.507446,405.971680 
	C822.971130,405.948090 827.427002,406.102356 831.808655,403.903656 
	C833.594177,408.454956 833.026428,412.709625 832.497498,416.943054 
	C832.338684,418.213623 831.481140,419.132080 830.158447,419.136810 
	C819.231018,419.175842 808.303406,419.158875 798.234985,419.158875 
	C799.323547,393.791290 799.503601,369.073822 798.080627,343.367432 
	C807.114014,342.575806 817.174072,343.161530 827.669678,343.050232 
z"/>
<path fill="#000000" opacity="1.000000" stroke="none" 
	d="
M777.000122,456.635773 
	C790.132996,456.641479 802.765991,456.615723 815.398438,456.691040 
	C817.232544,456.701965 819.959106,455.942780 820.231873,458.788147 
	C820.529846,461.896820 817.691528,461.956818 815.630981,461.961975 
	C795.020386,462.013458 774.409546,461.974426 753.798950,461.896790 
	C752.000793,461.890015 749.723572,461.727051 749.659790,459.292114 
	C749.581055,456.286346 752.151001,456.711884 754.060303,456.695068 
	C761.539795,456.629242 769.020081,456.648926 777.000122,456.635773 
z"/>
<path fill="#000000" opacity="1.000000" stroke="none" 
	d="
M231.026825,462.064331 
	C227.871918,462.051086 225.209152,462.100708 222.551300,462.008728 
	C220.542862,461.939209 218.091064,461.856598 218.052811,459.203461 
	C218.010925,456.299500 220.638733,456.641357 222.544556,456.636292 
	C240.670990,456.588104 258.797607,456.598511 276.924164,456.599731 
	C279.750977,456.599915 282.578186,456.617584 285.404480,456.667969 
	C286.980652,456.696045 288.551361,457.003632 288.725861,458.920105 
	C288.899109,460.822723 287.424713,461.513336 285.878937,461.745758 
	C284.243988,461.991547 282.569275,462.053650 280.911743,462.055695 
	C264.448212,462.075897 247.984650,462.067017 231.026825,462.064331 
z"/>
<path fill="#000000" opacity="1.000000" stroke="none" 
	d="
M388.072388,457.224609 
	C388.351044,454.756226 387.455078,451.985138 390.339844,451.383331 
	C394.120880,450.594513 393.798676,454.653595 395.486969,456.392334 
	C395.777832,456.277405 396.172974,456.249847 396.304565,456.049316 
	C397.572021,454.118164 397.619934,450.611328 401.052094,451.316711 
	C404.634521,452.053009 402.964417,455.335449 403.244598,457.559662 
	C403.470032,459.349976 403.413544,461.215118 403.196442,463.012543 
	C402.883331,465.604645 401.964935,467.548950 399.302826,464.687805 
	C398.593414,463.925323 398.340515,463.566864 397.584381,464.530518 
	C394.668457,468.246582 394.086090,464.407990 392.680328,462.919464 
	C391.900208,464.131378 392.094208,466.465881 389.744751,465.874390 
	C388.148804,465.472565 388.097656,463.944153 388.036407,462.637390 
	C387.959076,460.986755 388.043732,459.328522 388.072388,457.224609 
z"/>
<path fill="#000000" opacity="1.000000" stroke="none" 
	d="
M352.671295,465.393097 
	C350.381531,461.592957 350.274139,467.554596 348.654297,465.950897 
	C346.706635,465.762665 347.008698,463.602722 345.733917,462.742432 
	C344.818909,463.849854 345.388580,466.555756 342.908325,465.845154 
	C341.021484,465.304596 341.648499,463.392365 341.598053,461.976959 
	C341.521179,459.822144 341.465088,457.661011 341.545227,455.507996 
	C341.602722,453.962250 340.845612,451.872650 343.107819,451.310638 
	C345.232452,450.782745 346.497650,452.093567 347.221161,454.024261 
	C347.551514,454.905762 348.018646,455.736053 348.470490,456.688049 
	C350.907990,455.107574 350.498230,450.062134 354.354584,451.516083 
	C357.998474,452.889923 356.194855,456.816132 356.075134,459.472137 
	C355.978394,461.617035 358.680756,466.163757 352.671295,465.393097 
z"/>
<path fill="#000000" opacity="1.000000" stroke="none" 
	d="
M632.988525,453.296204 
	C635.902283,451.205078 635.902283,451.205078 638.157898,455.349945 
	C639.677002,454.318939 639.073792,451.152557 641.899536,451.516541 
	C644.162109,451.807983 643.962585,454.189545 645.166748,456.092468 
	C645.778381,454.734009 646.197693,453.897888 646.534729,453.029816 
	C646.945679,451.971466 647.648132,451.313629 648.792969,451.599457 
	C650.328186,451.982727 650.238892,453.264008 649.991516,454.418243 
	C649.505615,456.685089 648.978882,458.948883 648.329895,461.173340 
	C647.797668,462.997559 647.897400,465.465515 645.427124,465.893250 
	C643.037842,466.306946 643.178284,463.385162 641.685730,462.417480 
	C639.909180,463.196136 640.023499,466.561584 637.428162,465.873901 
	C635.063599,465.247375 635.360107,462.718567 634.816101,460.900604 
	C634.104126,458.521576 633.594360,456.082031 632.988525,453.296204 
z"/>
<path fill="#000000" opacity="1.000000" stroke="none" 
	d="
M453.075500,493.549316 
	C456.201050,488.072601 457.587738,492.463318 459.399017,494.401642 
	C461.169189,493.367798 461.402069,489.898438 464.249390,491.106171 
	C466.806122,492.190643 466.111359,494.825165 465.969269,496.822449 
	C465.777191,499.523315 467.776489,503.117981 461.464935,502.687683 
	C452.701355,502.090210 452.639404,502.998688 453.075500,493.549316 
z"/>
<path fill="#000000" opacity="1.000000" stroke="none" 
	d="
M597.580322,454.192413 
	C597.861267,452.483429 598.451477,451.300110 600.172180,451.579803 
	C601.625549,451.816101 601.827820,453.140289 601.878113,454.282074 
	C601.987793,456.767578 602.012024,459.262787 601.924622,461.748871 
	C601.868835,463.335754 602.208984,465.353027 600.074646,465.880981 
	C598.320251,466.314880 597.487549,464.780670 596.596130,463.579590 
	C595.925598,462.676086 595.208557,461.807129 594.463135,460.860413 
	C593.009949,462.458679 594.111572,464.884460 592.086121,465.821106 
	C590.216919,465.877594 589.858521,464.622467 589.780334,463.210968 
	C589.697876,461.720245 589.564148,460.206512 589.728943,458.733734 
	C589.993835,456.367218 588.427734,453.159576 590.906067,451.815033 
	C593.954956,450.160919 594.859558,453.778839 596.507751,455.400177 
	C596.618103,455.508728 596.914917,455.624359 596.921448,455.613617 
	C597.148315,455.238129 597.350647,454.847839 597.580322,454.192413 
z"/>
<path fill="#000000" opacity="1.000000" stroke="none" 
	d="
M675.912354,465.817413 
	C672.647095,461.810120 673.725952,457.379150 674.563721,453.300873 
	C675.229248,450.061249 678.540833,450.986633 680.917847,451.312744 
	C683.737671,451.699615 686.008728,453.546906 685.088501,456.367615 
	C684.068481,459.494690 684.184509,462.371857 685.018311,465.510986 
	C681.476013,466.827148 681.109009,463.515717 679.373230,462.211456 
	C677.527710,462.709015 678.772400,465.954285 675.912354,465.817413 
z"/>
<path fill="#000000" opacity="1.000000" stroke="none" 
	d="
M424.638428,453.053101 
	C425.521515,454.269928 426.191559,455.216187 426.901825,456.219299 
	C428.360535,455.761932 427.574310,454.560181 427.740387,453.767334 
	C428.000305,452.526459 428.345459,451.417572 429.804535,451.420624 
	C431.269989,451.423706 431.794586,452.575073 431.840668,453.796356 
	C431.953430,456.785248 431.984558,459.779999 431.939789,462.770752 
	C431.920105,464.087189 431.809082,465.554840 430.163788,465.966492 
	C428.613281,466.354401 427.682007,465.344116 426.900238,464.205688 
	C426.059631,462.981598 425.252899,461.734283 424.327454,460.340607 
	C422.371826,461.821167 424.517303,464.916626 421.885040,465.806641 
	C419.973328,464.070984 418.613037,453.867828 420.209442,452.200439 
	C421.723419,450.619202 423.189453,451.332031 424.638428,453.053101 
z"/>
<path fill="#000000" opacity="1.000000" stroke="none" 
	d="
M554.704285,454.329041 
	C556.428650,448.888672 560.187622,451.128113 563.015564,451.922607 
	C566.114380,452.793213 567.082947,455.586182 565.216614,458.286469 
	C563.396118,460.920502 565.942993,463.057587 565.381348,465.535858 
	C561.947998,467.498535 561.576294,463.362671 559.556213,462.569672 
	C558.083191,463.370880 558.593445,466.732056 555.924377,465.722198 
	C553.959839,464.978882 554.724182,462.848663 554.655273,461.278748 
	C554.560486,459.118225 554.664368,456.949036 554.704285,454.329041 
z"/>
<path fill="#000000" opacity="1.000000" stroke="none" 
	d="
M475.903564,459.011475 
	C476.352112,455.995819 474.427826,452.413788 478.256775,451.302002 
	C481.558990,450.343048 485.038300,450.838226 487.057648,454.113342 
	C489.034637,457.319763 488.994354,460.833618 486.652496,463.879333 
	C484.437592,466.759918 481.037323,466.859833 478.008331,465.934235 
	C474.843903,464.967224 476.198486,461.790619 475.903564,459.011475 
M480.994263,455.948425 
	C479.848389,458.116608 479.758026,460.187866 481.604492,462.600983 
	C484.230713,459.956207 485.524811,457.817657 480.994263,455.948425 
z"/>
<path fill="#000000" opacity="1.000000" stroke="none" 
	d="
M450.087097,460.572144 
	C449.223419,463.741943 447.616730,465.608887 444.652039,466.158478 
	C439.563293,467.101776 437.994385,465.870026 437.852966,460.690582 
	C437.834930,460.030518 437.778687,459.359894 437.864471,458.710602 
	C438.269867,455.641846 436.137878,451.205139 441.989044,451.039795 
	C447.424652,450.886230 449.911804,453.314453 450.231323,459.173920 
	C450.249176,459.500885 450.187988,459.832184 450.087097,460.572144 
M445.564728,460.646759 
	C445.988007,458.521912 446.429810,456.389191 443.133392,455.384247 
	C442.047089,457.500946 441.795258,459.593292 442.745575,461.542969 
	C443.329407,462.740875 444.435211,461.855835 445.564728,460.646759 
z"/>
<path fill="#000000" opacity="1.000000" stroke="none" 
	d="
M416.439941,502.629944 
	C414.701996,502.099365 412.920227,504.982727 411.606323,502.071625 
	C410.826599,500.344025 411.790863,491.658356 412.950348,491.187469 
	C416.254272,489.845581 416.310822,493.462158 418.025604,494.702423 
	C419.497253,493.350616 419.631500,490.057037 422.545197,491.085754 
	C425.300201,492.058563 423.966827,494.761108 424.264130,496.740295 
	C424.385773,497.550171 424.340515,498.398682 424.270966,499.221161 
	C424.066467,501.638489 424.600098,504.904907 420.285553,502.460999 
	C419.242401,501.870178 418.020538,504.001862 416.439941,502.629944 
z"/>
<path fill="#000000" opacity="1.000000" stroke="none" 
	d="
M657.049194,464.010620 
	C656.423096,462.973419 655.939636,462.272797 655.700684,461.496918 
	C654.503906,457.611481 655.197449,454.161072 658.803223,451.974640 
	C661.722412,450.204498 664.591370,450.893280 666.824219,453.475464 
	C669.024658,456.020172 668.949280,461.711273 666.547119,464.108917 
	C663.635925,467.014618 660.448608,467.095276 657.049194,464.010620 
M664.147827,457.342377 
	C663.669800,456.068298 663.058411,454.818695 661.436279,455.057861 
	C660.165955,455.245209 659.544495,456.285645 659.415466,457.511444 
	C659.202393,459.537018 659.208069,461.982788 661.649719,462.201477 
	C664.253967,462.434692 664.403809,460.028839 664.147827,457.342377 
z"/>
<path fill="#000000" opacity="1.000000" stroke="none" 
	d="
M580.547729,451.084839 
	C581.933838,451.396667 583.056335,451.643188 582.986694,452.908752 
	C582.828979,455.776276 579.729980,454.410583 578.526428,455.781769 
	C578.948975,457.275085 581.374756,456.250214 581.283325,457.763367 
	C581.619141,460.928040 578.220459,459.548615 577.684814,461.396545 
	C577.876587,461.683716 577.991455,462.069031 578.235107,462.186005 
	C579.827576,462.950439 582.639893,461.558716 582.906494,464.560669 
	C583.041626,466.082092 581.448425,466.298096 580.336853,466.172852 
	C577.769409,465.883545 574.017212,467.781952 573.135254,463.903381 
	C572.383057,460.595459 572.402832,456.884094 573.058472,453.542999 
	C573.833679,449.592468 577.555969,451.371185 580.547729,451.084839 
z"/>
<path fill="#000000" opacity="1.000000" stroke="none" 
	d="
M545.191895,462.690491 
	C546.996521,462.998688 548.615967,463.705658 547.340637,465.218536 
	C545.666321,467.204742 542.986511,466.096924 540.734558,466.200562 
	C538.772827,466.290863 537.584167,465.226196 537.410156,463.282227 
	C537.203979,460.978302 536.973206,458.651794 537.078064,456.349854 
	C537.303162,451.405975 541.560120,449.086884 546.112549,451.284607 
	C546.894104,451.661957 547.585022,452.111298 547.541992,453.082550 
	C547.500427,454.022827 546.842590,454.599365 546.030701,454.833862 
	C544.936768,455.149719 543.791809,455.288818 542.623108,455.512512 
	C542.906311,457.517487 545.747009,455.992340 545.737427,456.979370 
	C546.213318,461.116943 542.422852,459.401947 541.863647,461.412201 
	C542.402100,462.990265 543.757446,462.457214 545.191895,462.690491 
z"/>
<path fill="#000000" opacity="1.000000" stroke="none" 
	d="
M315.498474,455.640106 
	C314.158722,455.666199 313.071838,455.518066 311.928467,455.362213 
	C311.844604,456.991150 313.378357,456.891022 314.210938,457.425446 
	C315.987000,458.565521 317.439026,459.867493 317.086975,462.177399 
	C316.753082,464.368256 315.334534,465.757690 313.184631,466.132263 
	C310.853638,466.538330 308.528778,466.467590 306.782654,464.474884 
	C306.225983,463.839569 305.793213,463.052856 306.277985,462.224304 
	C306.858093,461.232758 307.799286,461.036316 308.836517,461.491608 
	C309.830902,461.928040 310.665466,463.082550 312.236420,461.929352 
	C310.641296,458.981781 303.658234,459.212189 306.702454,453.585999 
	C308.031464,451.129791 310.547272,450.530670 313.182220,451.330841 
	C315.124359,451.920593 317.144135,452.697235 315.498474,455.640106 
z"/>
<path fill="#000000" opacity="1.000000" stroke="none" 
	d="
M505.017029,495.387939 
	C505.282135,498.967987 504.707581,501.937744 501.422760,503.224152 
	C498.674713,504.300323 495.966827,503.577881 494.523895,500.882843 
	C492.902893,497.855225 493.155090,494.626587 495.703522,492.167297 
	C497.927368,490.021301 500.601166,490.309509 502.932587,492.201874 
	C503.788544,492.896637 504.275177,494.046448 505.017029,495.387939 
z"/>
<path fill="#000000" opacity="1.000000" stroke="none" 
	d="
M719.589783,454.892212 
	C721.097351,463.105316 717.923767,467.274933 711.518494,466.188446 
	C710.077454,465.944000 708.817566,465.519836 708.777649,463.875580 
	C708.692810,460.384125 708.347473,456.824402 708.882141,453.413879 
	C709.396851,450.130890 712.372925,451.129517 714.593750,451.369934 
	C716.684692,451.596252 718.383728,452.576294 719.589783,454.892212 
M714.920105,455.605194 
	C709.855530,456.706940 713.049133,459.797119 712.817200,462.690552 
	C716.798096,461.075165 717.343933,458.953186 714.920105,455.605194 
z"/>
<path fill="#000000" opacity="1.000000" stroke="none" 
	d="
M332.628784,465.757202 
	C329.318695,460.652466 326.428650,466.288818 322.912781,465.831055 
	C323.086090,460.923737 325.083862,456.768127 326.841095,452.607300 
	C327.562622,450.898834 329.258484,451.067017 330.665405,452.024261 
	C332.025879,452.949890 335.517853,463.416992 335.010437,464.996765 
	C334.703918,465.951111 333.849670,466.039520 332.628784,465.757202 
z"/>
<path fill="#000000" opacity="1.000000" stroke="none" 
	d="
M367.496887,462.287170 
	C369.409912,462.974640 371.511810,462.059998 373.220856,464.871643 
	C370.105377,466.982086 366.872131,466.640839 363.726440,465.556427 
	C362.386902,465.094666 361.899719,453.046021 363.294006,452.189880 
	C366.402191,450.281342 369.666260,450.210815 372.711395,452.539398 
	C372.041504,455.651855 369.471008,454.675903 367.572754,455.562744 
	C368.026550,457.328491 370.869720,456.258209 370.933807,458.342529 
	C371.571350,461.331970 366.476959,458.903656 367.496887,462.287170 
z"/>
<path fill="#000000" opacity="1.000000" stroke="none" 
	d="
M392.145935,494.981537 
	C390.762299,497.828644 391.697601,500.451080 391.854309,503.075806 
	C389.165588,504.004211 386.592010,500.019135 384.264557,503.259155 
	C384.208344,503.337433 383.186157,503.015778 383.039459,502.689575 
	C381.602478,499.493561 382.836304,496.195282 382.837311,492.944031 
	C382.837921,490.997925 384.558716,490.776093 386.111450,490.757294 
	C388.935455,490.723083 391.435730,491.246368 392.145935,494.981537 
z"/>
<path fill="#000000" opacity="1.000000" stroke="none" 
	d="
M561.138306,502.698059 
	C560.277893,501.897400 559.708496,501.292664 559.070129,500.614746 
	C557.325684,500.386108 557.749329,503.383423 555.528381,502.828766 
	C555.399841,502.707184 554.939148,502.447021 554.741516,502.054413 
	C553.779297,500.142700 554.218872,498.128448 554.530457,496.171692 
	C554.799622,494.481384 553.787720,492.106689 556.036072,491.332428 
	C558.279053,490.560089 558.827271,493.150848 560.081360,494.351929 
	C561.341003,493.421356 560.833557,491.197052 562.835754,491.129456 
	C566.052612,494.797058 565.249512,501.618317 561.138306,502.698059 
z"/>
<path fill="#000000" opacity="1.000000" stroke="none" 
	d="
M525.178406,463.199158 
	C524.884888,464.779602 524.516296,465.924988 523.023743,465.899384 
	C521.537231,465.873871 521.081726,464.709991 520.997620,463.518188 
	C520.857788,461.536407 520.855042,459.541504 520.872375,457.552795 
	C520.926697,451.298004 522.528320,449.980408 528.671204,451.019073 
	C529.841125,451.216888 531.134766,451.303864 531.280396,452.784912 
	C531.460388,454.615631 530.067383,454.875366 528.673523,455.039703 
	C527.887024,455.132446 527.106750,455.278198 526.238220,455.413330 
	C526.621521,457.503784 529.799133,456.344543 529.403137,459.334808 
	C528.958313,461.007385 525.075012,459.786011 525.178406,463.199158 
z"/>
<path fill="#000000" opacity="1.000000" stroke="none" 
	d="
M645.927856,497.295868 
	C645.812744,499.276215 645.812744,500.877777 645.812744,502.797638 
	C643.149536,503.093750 640.515198,501.434479 638.016846,503.254791 
	C636.103088,499.617432 636.582581,496.122284 637.265564,492.843994 
	C637.862122,489.980377 640.608887,490.623840 642.628662,491.009369 
	C645.858093,491.625824 646.848633,493.822021 645.927856,497.295868 
z"/>
<path fill="#000000" opacity="1.000000" stroke="none" 
	d="
M397.533142,497.122009 
	C397.641388,494.065247 396.627747,490.710144 401.175018,490.680939 
	C404.261536,490.661133 407.067200,490.613892 405.423584,495.265564 
	C404.625793,497.523407 405.040649,500.072205 406.399445,502.244141 
	C399.021820,505.007935 397.201385,503.963501 397.533142,497.122009 
z"/>
<path fill="#000000" opacity="1.000000" stroke="none" 
	d="
M513.266724,451.257690 
	C514.811646,454.266479 514.811646,454.266479 510.294098,455.791565 
	C510.630829,457.392090 513.372925,456.421692 513.155334,458.988281 
	C511.610260,460.479279 508.503052,461.268768 508.565826,464.608978 
	C508.581085,465.421265 507.672302,465.953888 506.734772,465.894958 
	C505.543335,465.820099 504.918884,464.997864 504.889893,463.953735 
	C504.793915,460.494141 504.187714,456.879944 504.963989,453.606506 
	C505.995575,449.256592 510.022156,451.403259 513.266724,451.257690 
z"/>
<path fill="#000000" opacity="1.000000" stroke="none" 
	d="
M448.263367,498.652313 
	C447.793304,502.529449 445.665588,504.055054 442.386841,503.697876 
	C438.871948,503.314972 437.921875,500.716370 437.876373,497.603271 
	C437.864258,496.774628 437.815338,495.940735 437.884735,495.117828 
	C438.017120,493.548462 437.515594,491.306000 439.811768,491.193726 
	C442.205963,491.076721 441.769745,493.361298 441.966187,494.916656 
	C442.144379,496.327545 441.827118,497.870453 443.063782,499.216125 
	C445.323425,497.942169 444.402679,495.944214 444.596191,494.317474 
	C444.745850,493.059418 444.241425,491.303162 446.068695,491.117981 
	C448.226562,490.899231 448.173279,492.755157 448.242737,494.242493 
	C448.304565,495.566162 448.273804,496.894226 448.263367,498.652313 
z"/>
<path fill="#000000" opacity="1.000000" stroke="none" 
	d="
M543.170776,490.847656 
	C546.350098,490.932281 548.483398,492.215851 549.033997,494.953094 
	C549.712769,498.328094 549.570740,501.838287 545.604126,503.216675 
	C542.581482,504.267029 539.931763,503.207886 538.806519,500.013550 
	C537.345825,495.866760 538.204651,492.518188 543.170776,490.847656 
M542.312134,496.814636 
	C542.351929,498.130707 542.380249,499.842072 544.219971,499.316498 
	C545.923462,498.829895 546.007812,496.991211 545.184509,495.683716 
	C544.183777,494.094543 543.090759,494.582825 542.312134,496.814636 
z"/>
<path fill="#000000" opacity="1.000000" stroke="none" 
	d="
M659.520935,500.795471 
	C660.880920,502.955414 659.438477,503.274048 658.060303,503.267059 
	C656.155151,503.257385 653.536621,504.181549 652.624756,502.020935 
	C651.265442,498.800232 650.803406,494.850952 652.833313,492.012054 
	C654.604248,489.535248 657.828491,490.739532 660.965637,491.637482 
	C659.649658,494.265533 659.736633,496.761108 658.093384,498.745300 
	C656.907166,500.177643 658.645081,500.137665 659.520935,500.795471 
z"/>
<path fill="#000000" opacity="1.000000" stroke="none" 
	d="
M371.030060,490.776306 
	C374.015686,490.802124 376.696198,490.835480 377.456238,493.981293 
	C378.190491,497.020569 376.503326,498.723877 373.718201,499.423798 
	C371.735138,499.922150 372.069183,502.774261 369.919983,503.012451 
	C366.718475,499.323853 367.049835,493.565521 371.030060,490.776306 
z"/>
<path fill="#000000" opacity="1.000000" stroke="none" 
	d="
M618.579102,453.573761 
	C614.981995,455.730499 615.245483,458.946899 615.247864,462.113495 
	C615.248962,463.541626 615.524414,465.563232 613.542908,465.698364 
	C611.234253,465.855713 611.337158,463.674255 611.143066,462.081879 
	C610.405029,456.025452 610.423035,456.023254 607.855835,452.833984 
	C611.364014,450.090363 615.833008,450.251343 618.579102,453.573761 
z"/>
<path fill="#000000" opacity="1.000000" stroke="none" 
	d="
M595.991638,490.806519 
	C599.067200,490.822754 601.602722,491.264130 602.183228,494.351685 
	C602.706665,497.135620 601.085022,498.838226 598.475220,499.317535 
	C596.322937,499.712830 596.704285,502.516388 594.716125,502.899292 
	C591.586365,499.142456 592.009277,493.293182 595.991638,490.806519 
z"/>
<path fill="#000000" opacity="1.000000" stroke="none" 
	d="
M486.465332,498.763702 
	C490.026031,498.976105 489.393860,500.692657 487.823975,502.187958 
	C485.957214,503.966003 483.574280,504.052094 481.382141,502.753998 
	C478.494171,501.043823 478.256775,498.200287 478.897186,495.309906 
	C479.482422,492.668304 481.104401,490.789948 484.038208,490.795441 
	C486.557861,490.800140 488.506134,491.737366 488.728546,494.468109 
	C486.921814,496.930969 485.236755,494.102112 483.496033,494.808411 
	C482.080322,496.056458 481.838837,497.635925 483.030090,499.113617 
	C483.954926,500.260834 485.137787,499.481079 486.465332,498.763702 
z"/>
<path fill="#000000" opacity="1.000000" stroke="none" 
	d="
M586.579163,497.503357 
	C587.130066,499.402618 588.085876,500.873840 587.250122,502.836792 
	C584.366943,503.296448 581.220032,499.146606 578.437927,504.506256 
	C576.868896,498.825928 579.384277,495.507477 580.878662,492.139343 
	C581.733337,490.212952 583.719299,490.705139 584.706787,492.537415 
	C585.478027,493.968445 585.876648,495.600250 586.579163,497.503357 
z"/>
<path fill="#000000" opacity="1.000000" stroke="none" 
	d="
M615.980225,492.904205 
	C617.406982,495.315277 616.988647,497.460724 614.992920,498.319580 
	C612.557312,499.367706 610.875732,501.213257 608.658875,503.290710 
	C607.033875,498.999725 606.224915,494.872894 608.659180,491.688873 
	C610.328674,489.505157 613.536499,490.736359 615.980225,492.904205 
z"/>
<path fill="#000000" opacity="1.000000" stroke="none" 
	d="
M630.876099,498.223633 
	C631.228333,499.982880 632.153320,501.361206 631.093750,503.127167 
	C628.259766,502.000977 625.368469,500.561951 622.119873,503.902924 
	C621.231079,498.664948 623.325623,495.096954 625.365417,491.757568 
	C626.356262,490.135345 628.127747,491.203918 628.857361,492.741486 
	C629.634338,494.378937 630.127075,496.151306 630.876099,498.223633 
z"/>
<path fill="#000000" opacity="1.000000" stroke="none" 
	d="
M699.549316,466.134521 
	C696.827759,465.837128 693.557556,467.491089 692.551392,464.387268 
	C691.330811,460.622101 691.549133,456.548828 692.635681,452.659943 
	C692.754700,452.233917 693.632996,451.823029 694.197327,451.762817 
	C695.130676,451.663361 695.788330,452.354004 695.897888,453.221527 
	C696.104370,454.856781 696.248718,456.517487 696.207947,458.162323 
	C696.144043,460.736206 696.519897,462.500214 699.754211,462.929901 
	C702.586670,463.306213 702.616882,464.824158 699.549316,466.134521 
z"/>
<path fill="#000000" opacity="1.000000" stroke="none" 
	d="
M339.033905,303.057129 
	C339.846466,300.181000 341.399963,298.625488 344.136200,298.846893 
	C346.145599,299.009491 347.490997,300.260223 348.049011,302.165222 
	C348.610718,304.082916 348.040649,305.794006 346.529388,307.097565 
	C343.720551,309.520355 340.805878,308.093903 339.033905,303.057129 
z"/>
<path fill="#000000" opacity="1.000000" stroke="none" 
	d="
M532.777405,493.987793 
	C530.281799,495.955505 531.298157,498.565765 530.695496,500.725891 
	C530.387146,501.831238 530.240540,503.183319 528.675232,503.129883 
	C527.099548,503.076111 526.830139,501.764801 526.948730,500.607849 
	C527.282227,497.354126 526.440735,494.535797 523.768250,492.140869 
	C526.685791,490.053467 529.505066,490.644470 532.194641,491.056000 
	C533.664551,491.280945 533.853760,492.482635 532.777405,493.987793 
z"/>
<path fill="#000000" opacity="1.000000" stroke="none" 
	d="
M512.039185,495.315704 
	C511.083679,494.035309 509.335358,493.784424 509.813202,491.605957 
	C512.844238,490.307098 515.968811,490.093506 520.527222,492.284424 
	C514.921753,494.495026 517.327759,499.749420 514.977539,503.317932 
	C511.238251,501.331146 513.399231,497.942596 512.039185,495.315704 
z"/>
<path fill="#000000" opacity="1.000000" stroke="none" 
	d="
M494.062897,459.861908 
	C494.567017,456.715912 492.685455,451.899017 496.195648,451.877808 
	C500.082062,451.854309 497.589142,456.646118 498.302826,459.223602 
	C498.387695,459.530029 498.362030,459.890320 498.302368,460.209717 
	C497.937836,462.161530 499.349945,465.485565 496.606445,465.675323 
	C493.262115,465.906677 494.563354,462.335388 494.062897,459.861908 
z"/>
<path fill="#000000" opacity="1.000000" stroke="none" 
	d="
M673.940918,502.209045 
	C671.343323,503.643646 668.136902,504.569489 666.807373,501.909088 
	C665.167725,498.628296 665.342773,494.705109 667.992615,490.511261 
	C670.758789,494.391998 669.068970,500.095032 673.940918,502.209045 
z"/>
<path fill="#000000" opacity="1.000000" stroke="none" 
	d="
M429.683258,491.926880 
	C431.456329,490.629059 432.668884,491.271637 432.826965,492.791840 
	C433.112213,495.534882 433.041840,498.326172 432.946838,501.091370 
	C432.913055,502.074707 432.249786,502.959869 431.056610,502.961700 
	C429.827728,502.963593 429.353577,502.020111 429.220642,501.038055 
	C428.824677,498.112610 428.652283,495.174652 429.683258,491.926880 
z"/>
<path fill="#000000" opacity="1.000000" stroke="none" 
	d="
M409.659393,459.913757 
	C409.678406,457.628510 409.667786,455.806885 409.724884,453.987396 
	C409.763000,452.772491 410.017426,451.524658 411.574005,451.603424 
	C413.099030,451.680573 413.265228,452.966248 413.287109,454.161163 
	C413.335602,456.809021 413.399231,459.459656 413.325714,462.105499 
	C413.286926,463.500427 413.705292,465.533203 411.647949,465.665253 
	C409.518585,465.801941 409.806976,463.787872 409.673584,462.363739 
	C409.612061,461.707214 409.660156,461.040405 409.659393,459.913757 
z"/>
</svg>