<svg version="1.1" id="Layer_1" xmlns="http://www.w3.org/2000/svg" xmlns:xlink="http://www.w3.org/1999/xlink" x="0px" y="0px"
	 width="100%" viewBox="0 0 1536 1024" enable-background="new 0 0 1536 1024" xml:space="preserve">
<path fill="#FFFFFF" opacity="1.000000" stroke="none" 
	d="
M1418.000000,1025.000000 
	C945.333313,1025.000000 473.166656,1025.000000 1.000000,1025.000000 
	C1.000000,683.666687 1.000000,342.333344 1.000000,1.000000 
	C513.000000,1.000000 1025.000000,1.000000 1537.000000,1.000000 
	C1537.000000,342.333344 1537.000000,683.666687 1537.000000,1025.000000 
	C1497.500000,1025.000000 1458.000000,1025.000000 1418.000000,1025.000000 
M417.553467,532.502014 
	C416.523712,545.860901 420.589752,559.747620 412.994110,572.625977 
	C423.906097,572.625977 434.395325,572.625977 444.170776,572.625977 
	C442.841980,567.001648 440.536987,561.629944 440.469818,556.230347 
	C440.107117,527.074219 440.264038,497.911102 440.385223,468.751007 
	C440.392639,466.960907 441.100952,464.437439 442.386505,463.517456 
	C447.744385,459.683136 453.447998,456.331970 460.283203,452.007477 
	C461.231049,457.756653 462.662750,462.543274 462.704102,467.341827 
	C462.925323,493.002350 462.868042,518.666199 462.758026,544.328186 
	C462.717224,553.847778 464.275970,563.650024 458.357208,572.159241 
	C459.067413,572.606995 459.333679,572.921631 459.600800,572.922363 
	C478.263794,572.973206 496.927063,573.036560 515.589355,572.923462 
	C516.598267,572.917419 518.440369,571.444153 518.469238,570.604736 
	C518.705200,563.743042 518.602234,556.869629 518.602234,549.435425 
	C507.633789,557.101013 496.231079,552.643982 485.327728,554.119324 
	C485.327728,541.760864 485.327728,530.036682 485.327728,517.418396 
	C493.408966,518.171692 501.120392,518.890503 508.583252,519.586182 
	C508.583252,512.693665 508.583252,504.838989 508.583252,498.000549 
	C500.633301,498.558472 493.026794,499.092316 485.217865,499.640320 
	C485.217865,488.560974 485.217865,478.484100 485.217865,467.872955 
	C495.944916,469.251678 506.991882,465.001221 516.690613,472.482910 
	C516.690613,464.352783 516.690613,456.823517 516.690613,448.730652 
	C499.577026,448.730652 482.962067,448.730652 466.347076,448.730652 
	C466.176300,448.205383 466.005524,447.680115 465.834747,447.154846 
	C476.960358,441.260468 487.743347,434.550873 499.304199,429.692047 
	C511.831024,424.427246 525.040588,421.536652 538.174683,429.077576 
	C539.631287,429.913879 542.466125,429.922852 543.845825,429.040161 
	C549.056824,425.706451 553.931091,421.846405 559.233154,417.962311 
	C549.000488,407.964508 536.275330,404.569275 522.689026,405.337708 
	C510.866333,406.006439 499.422455,409.649963 489.485596,416.298187 
	C474.578613,426.271606 460.115692,436.907135 445.366943,447.121063 
	C443.757629,448.235535 441.529114,448.886780 439.555939,448.966675 
	C432.733185,449.243103 425.895142,449.116425 419.065521,449.264069 
	C416.801392,449.313019 414.078796,449.903229 415.298187,452.947876 
	C419.116333,462.481201 417.186249,472.373383 417.577850,482.109863 
	C417.802094,487.685303 417.618500,493.277130 417.618500,499.029663 
	C408.192596,499.029663 399.767700,499.029663 390.879303,499.029663 
	C390.879303,493.209503 390.705536,487.576263 390.917847,481.957642 
	C391.285797,472.220886 389.377411,462.283600 393.435242,452.801880 
	C393.717377,452.142609 391.601532,449.421783 390.545654,449.388123 
	C381.687042,449.105652 372.815552,449.227386 362.720825,449.227386 
	C368.575409,456.977997 367.994202,464.855865 367.981689,472.663208 
	C367.942719,496.992615 368.010742,521.322205 367.944427,545.651489 
	C367.919739,554.705933 369.320099,564.014465 362.913696,572.644897 
	C374.242645,572.644897 384.550171,572.644897 394.961670,572.644897 
	C387.279907,554.670410 392.583710,536.328186 390.699860,518.372314 
	C400.074677,518.372314 408.503876,518.372314 417.534729,518.372314 
	C417.534729,522.922852 417.534729,527.213745 417.553467,532.502014 
M1150.554199,591.111877 
	C1149.223999,592.812988 1147.893799,594.514099 1145.780396,597.216858 
	C1150.776611,595.500488 1154.257935,594.012268 1157.885254,593.112732 
	C1169.189941,590.309326 1179.915283,593.437073 1190.676270,596.514832 
	C1203.890015,600.294067 1216.994141,604.937134 1230.482666,607.181274 
	C1264.354614,612.816711 1293.892944,594.631104 1305.416382,562.388977 
	C1312.966797,541.263611 1313.966187,519.496094 1311.886230,497.442566 
	C1310.726196,485.143250 1308.024170,473.236908 1302.204712,462.163544 
	C1295.609131,449.613831 1285.615601,440.830688 1271.612305,439.122833 
	C1257.319092,437.379639 1242.756714,437.837799 1228.310181,437.390381 
	C1227.806030,437.374786 1227.282593,437.983734 1225.959961,438.800934 
	C1239.238159,446.316101 1236.181152,458.761902 1236.265869,470.099731 
	C1236.459961,496.088837 1236.391113,522.080139 1236.375366,548.070496 
	C1236.370239,556.448364 1237.420532,565.030090 1231.543579,572.687134 
	C1242.821411,572.687134 1253.334961,572.687134 1263.085571,572.687134 
	C1261.690308,567.026855 1259.239258,561.556396 1259.169556,556.055847 
	C1258.789429,526.069519 1258.995728,496.075714 1259.000244,466.084473 
	C1259.000610,463.456329 1259.000244,460.828186 1259.000244,458.239136 
	C1271.163574,457.425934 1279.663452,463.233337 1283.623291,476.139282 
	C1291.212280,500.873505 1291.217651,525.995117 1284.985229,550.963989 
	C1278.667358,576.274963 1258.408325,591.081909 1232.702515,588.648010 
	C1222.750854,587.705811 1213.025513,584.105469 1203.265503,581.463440 
	C1184.401733,576.356873 1166.725952,577.579163 1150.554199,591.111877 
M655.683411,508.500671 
	C655.659424,494.511627 655.724731,480.521637 655.575867,466.533905 
	C655.494568,458.892487 655.121094,451.268066 660.545349,444.233368 
	C649.285217,444.233368 638.850342,444.233368 629.639221,444.233368 
	C630.449829,450.580078 631.846191,456.688049 631.904663,462.808807 
	C632.151062,488.619843 632.000732,514.434692 631.987061,540.248169 
	C631.986084,542.079529 632.040161,543.923401 631.857056,545.740112 
	C631.010071,554.142029 625.626160,559.517212 617.827393,559.847717 
	C609.414185,560.204224 603.603638,555.655762 601.990784,547.179443 
	C601.436218,544.265015 601.196167,541.249329 601.187744,538.278870 
	C601.125488,516.462463 601.114319,494.645691 601.181763,472.829285 
	C601.211731,463.128418 599.716431,453.159973 606.363953,444.123657 
	C594.843933,444.123657 584.145691,444.123657 572.788757,444.123657 
	C577.680115,450.682587 577.449646,457.812592 577.428528,464.982574 
	C577.351562,491.128662 577.287659,517.276001 577.469849,543.421082 
	C577.570862,557.920837 582.924500,569.680969 596.704102,576.240784 
	C605.196228,580.283508 614.230286,581.259888 623.483704,579.980530 
	C640.026978,577.693176 656.115417,565.973694 655.623108,544.470032 
	C655.356384,532.820190 655.644470,521.157593 655.683411,508.500671 
M716.323364,506.037537 
	C710.532654,491.577881 704.776733,477.103943 698.885925,462.685211 
	C698.408142,461.515900 697.031067,459.916656 696.029541,459.885590 
	C688.443604,459.650421 680.847107,459.757019 673.879456,459.757019 
	C674.927246,464.703125 676.639954,469.134216 676.681519,473.580963 
	C676.938293,501.059143 676.947144,528.541809 676.742371,556.020752 
	C676.684570,563.780762 674.322815,570.810669 668.822693,576.923645 
	C665.068665,581.095947 662.656555,586.475708 659.170776,592.076721 
	C666.277039,590.825195 671.199524,587.825500 674.674438,582.643616 
	C679.303650,575.740234 685.272339,571.785828 693.946655,572.953979 
	C695.830200,573.207703 697.777039,572.991089 698.572205,572.991089 
	C697.707947,565.664734 696.396118,558.898560 696.216919,552.102539 
	C695.861328,538.621887 696.123718,525.124695 696.153442,511.634338 
	C696.155945,510.477539 696.327576,509.321136 696.518311,506.951782 
	C697.431091,508.856659 697.813293,509.561462 698.115723,510.299011 
	C706.171326,529.946228 714.185547,549.610535 722.335205,569.218628 
	C722.938538,570.670227 724.454468,572.730347 725.634399,572.791016 
	C732.334961,573.135681 739.062500,572.958008 744.602600,572.958008 
	C743.844299,565.577637 742.630066,558.938782 742.575317,552.290283 
	C742.383240,528.977844 742.618530,505.662140 742.630127,482.347656 
	C742.633911,474.746429 741.896606,467.046448 747.450378,460.022522 
	C737.450256,460.022522 728.325439,460.022522 720.376587,460.022522 
	C721.266724,466.055878 722.558350,471.652496 722.817566,477.296570 
	C723.222229,486.105194 722.927429,494.945953 722.928528,503.773102 
	C722.929138,508.950867 722.928589,514.128601 722.928589,519.306396 
	C722.605225,519.349854 722.281921,519.393311 721.958557,519.436768 
	C720.197449,515.199463 718.436279,510.962219 716.323364,506.037537 
M1052.925781,484.507690 
	C1052.925781,496.136017 1052.925781,507.764374 1052.925781,519.392700 
	C1051.689941,518.703796 1051.307007,517.987244 1050.999023,517.239807 
	C1043.664307,499.442749 1036.368896,481.629395 1028.954102,463.865875 
	C1028.322876,462.353851 1026.955444,460.063477 1025.844360,460.012756 
	C1018.336548,459.670319 1010.805664,459.834106 1004.460999,459.834106 
	C1005.422668,465.883911 1006.975220,471.324951 1007.036011,476.782562 
	C1007.297363,500.267242 1007.137634,523.756836 1007.094788,547.244507 
	C1007.079163,555.806580 1008.265137,564.568237 1002.347595,572.628784 
	C1012.078247,572.628784 1020.902100,572.628784 1029.173340,572.628784 
	C1023.358948,551.673584 1027.542358,530.649841 1026.602661,509.795593 
	C1027.605957,510.406616 1028.007202,511.082764 1028.308594,511.800781 
	C1036.144165,530.469421 1043.913818,549.166077 1051.879883,567.778809 
	C1052.701294,569.698303 1054.568237,572.406372 1056.147095,572.547852 
	C1062.337158,573.102356 1068.606201,572.774597 1073.811890,572.774597 
	C1073.234009,565.050537 1072.297363,557.875244 1072.233765,550.692261 
	C1072.028442,527.539001 1071.974365,504.380951 1072.240601,481.229065 
	C1072.320557,474.262604 1073.636230,467.310364 1074.419067,460.043182 
	C1066.972534,460.043182 1058.216797,460.043182 1048.814331,460.043182 
	C1054.095215,467.770569 1052.750977,475.756042 1052.925781,484.507690 
M860.447144,561.678772 
	C860.447144,548.734619 860.447144,535.790466 860.447144,522.420410 
	C866.104553,522.420410 871.596558,522.712524 877.040588,522.326355 
	C881.268311,522.026550 882.161804,523.711060 881.897949,527.489868 
	C880.846191,542.552917 884.690063,557.990723 878.034058,572.474365 
	C888.079712,572.474365 897.772522,572.474365 906.267944,572.474365 
	C905.293579,565.640137 903.664307,559.190674 903.579285,552.720825 
	C903.274963,529.562439 903.529541,506.397125 903.495239,483.234558 
	C903.483704,475.409088 902.934814,467.533356 908.084290,459.988831 
	C897.577332,459.988831 887.883789,459.988831 878.062317,459.988831 
	C881.582275,470.070435 883.288574,495.530792 881.098816,503.839111 
	C874.178589,503.839111 867.258301,503.839111 859.785522,503.839111 
	C861.626404,489.156311 856.877930,474.331512 863.905334,460.113281 
	C854.164001,460.113281 844.733337,460.113281 836.390747,460.113281 
	C837.288452,466.006104 838.748352,471.473419 838.842590,476.964172 
	C839.148499,494.789398 839.322754,512.633301 838.835022,530.450500 
	C838.449646,544.529846 841.737427,558.963135 834.887024,572.988403 
	C844.187256,572.988403 852.840698,572.997559 861.494019,572.972412 
	C862.259705,572.970215 863.024719,572.744324 863.878052,572.608276 
	C862.730469,569.043945 861.680542,565.782715 860.447144,561.678772 
M1115.253906,477.427338 
	C1122.848877,473.126434 1129.359497,475.599762 1130.958496,484.022919 
	C1131.806274,488.488251 1131.108765,493.246948 1131.108765,497.764191 
	C1137.824707,496.166260 1145.163818,494.420013 1152.575562,492.656494 
	C1151.916870,483.250824 1150.828491,474.387390 1144.733398,467.081482 
	C1136.833496,457.612335 1126.135132,456.574677 1115.116211,458.248047 
	C1103.412354,460.025421 1095.842041,467.364136 1091.975708,478.477997 
	C1087.710083,490.739532 1086.746704,503.500763 1086.669312,516.339233 
	C1086.589844,529.510437 1087.427246,542.597961 1091.919678,555.170471 
	C1096.844849,568.953979 1108.235107,576.378845 1122.579468,573.848145 
	C1128.293335,572.840149 1133.560425,569.299866 1138.266113,567.246155 
	C1139.619019,568.861328 1141.025513,572.157593 1143.164917,572.734131 
	C1146.827881,573.721375 1150.949585,573.006775 1154.304688,573.006775 
	C1151.679932,552.107056 1151.996338,531.734741 1153.822876,511.150635 
	C1143.275513,511.150635 1132.386597,511.150635 1122.057983,511.150635 
	C1122.057983,517.051819 1122.057983,522.574707 1122.057983,527.837524 
	C1125.307983,527.472351 1127.995239,527.170410 1130.889771,526.845154 
	C1130.889771,534.492249 1131.245117,541.459595 1130.755249,548.367004 
	C1130.465454,552.451965 1127.667969,555.298401 1123.294067,555.924988 
	C1117.905396,556.696899 1114.043823,554.934692 1112.230469,550.409119 
	C1111.136475,547.678955 1110.243530,544.680481 1110.142578,541.771973 
	C1109.646606,527.481873 1109.039673,513.173889 1109.312500,498.888214 
	C1109.449585,491.721008 1109.840942,484.176117 1115.253906,477.427338 
M972.049500,477.286835 
	C971.619385,471.630402 971.189270,465.973999 970.734741,459.995911 
	C960.627625,459.995911 949.620972,459.995911 939.239502,459.995911 
	C939.239502,465.202118 939.942322,470.026093 939.111633,474.569733 
	C936.279419,490.061737 933.386108,505.573212 929.613953,520.854553 
	C925.358215,538.094971 924.095215,556.125305 916.340027,572.715088 
	C925.362793,572.715088 934.380493,572.715088 944.200439,572.715088 
	C938.691772,564.638550 942.365845,557.071289 943.439514,549.492432 
	C951.155579,549.492432 958.382446,549.492432 965.677734,549.492432 
	C966.758118,557.341003 970.780029,564.892090 964.386169,572.547852 
	C975.164795,572.547852 984.929993,572.547852 993.520691,572.547852 
	C990.989868,562.685364 988.232117,553.049438 986.068787,543.281799 
	C981.267639,521.603821 976.764587,499.859772 972.049500,477.286835 
M818.136169,469.378235 
	C814.625305,463.688385 809.448669,460.500000 803.042297,458.853729 
	C785.119751,454.248077 769.541687,462.246948 764.229126,479.984497 
	C757.004089,504.107117 757.256165,528.538452 763.940063,552.768982 
	C766.991882,563.832214 774.285400,571.017761 785.805298,573.634155 
	C799.282898,576.695251 812.410034,572.692078 818.316467,563.239319 
	C823.875732,554.342102 824.922913,544.385559 825.036011,533.976318 
	C817.362976,532.148193 810.045410,530.404724 802.823486,528.684082 
	C802.823486,535.872253 803.220398,542.254883 802.672241,548.555298 
	C802.351807,552.237793 800.198181,555.473267 795.760803,555.941223 
	C790.902527,556.453552 787.321533,554.602661 785.242798,550.142700 
	C784.688782,548.953918 784.165161,547.638000 784.093506,546.354492 
	C783.318237,532.456909 782.220093,518.557678 782.099426,504.651184 
	C782.036743,497.426117 783.523254,490.148132 784.732239,482.965118 
	C785.552490,478.091583 789.168213,475.391449 793.912964,475.281372 
	C798.928162,475.165070 802.167664,478.553650 802.734009,483.192535 
	C803.398071,488.631073 802.889465,494.212769 802.889465,500.248688 
	C809.900574,498.552734 817.475403,496.720428 825.211853,494.849030 
	C824.218994,485.752930 823.228882,477.383545 818.136169,469.378235 
M1167.252441,569.745422 
	C1166.861206,570.677795 1166.470093,571.610229 1166.040894,572.633423 
	C1184.951904,572.633423 1203.345825,572.633423 1221.714722,572.633423 
	C1221.714722,564.878662 1221.714722,557.516907 1221.714722,549.548767 
	C1212.207520,557.361572 1201.655884,553.256348 1191.585205,554.381836 
	C1191.585205,543.426208 1191.585205,533.044128 1191.585205,521.643066 
	C1198.983521,522.322632 1205.879639,522.956055 1212.959229,523.606323 
	C1212.959229,517.221436 1212.959229,509.676117 1212.959229,503.354309 
	C1205.694214,504.081573 1198.653442,504.786346 1191.634399,505.488953 
	C1191.634399,495.469116 1191.634399,486.557678 1191.634399,477.095917 
	C1201.760254,478.333405 1211.902588,474.531372 1221.762939,481.624695 
	C1221.762939,474.995178 1221.545654,469.384338 1221.840820,463.800598 
	C1222.030518,460.213593 1220.771240,459.175201 1217.311523,459.230103 
	C1202.330200,459.467926 1187.345581,459.498199 1172.362183,459.599365 
	C1170.293701,459.613312 1168.224976,459.601288 1167.070801,459.601288 
	C1168.188232,465.194183 1169.982056,470.123871 1170.027222,475.069458 
	C1170.280884,502.872467 1170.197144,530.679932 1169.985352,558.484070 
	C1169.958374,562.020874 1168.512085,565.546814 1167.252441,569.745422 
M329.225739,537.499695 
	C329.225739,514.420837 329.225739,491.341980 329.225739,466.890778 
	C336.320526,468.163940 342.419220,469.178772 348.481201,470.379242 
	C351.569916,470.990906 352.920380,469.649841 352.994507,466.807129 
	C353.116119,462.143951 353.329071,457.454590 352.936127,452.824402 
	C352.821228,451.470306 350.792175,449.187134 349.623383,449.176270 
	C328.962616,448.984436 308.298798,449.035461 287.637329,449.219269 
	C286.416199,449.230164 284.196777,450.761108 284.156799,451.660858 
	C283.859253,458.354309 283.995300,465.067047 283.995300,472.034302 
	C295.203857,467.841400 299.995758,467.185547 306.880005,468.839172 
	C306.880005,470.405151 306.880981,472.047913 306.879852,473.690674 
	C306.865082,495.353668 307.045410,517.019287 306.755371,538.678650 
	C306.602631,550.088135 309.329529,561.977051 301.480652,572.708740 
	C312.888458,572.708740 323.425629,572.708740 333.168518,572.708740 
	C331.838806,566.693787 330.088562,560.899414 329.387421,554.980713 
	C328.744873,549.556702 329.234894,543.998474 329.225739,537.499695 
z"/>
<path fill="#060505" opacity="1.000000" stroke="none" 
	d="
M417.544098,532.003357 
	C417.534729,527.213745 417.534729,522.922852 417.534729,518.372314 
	C408.503876,518.372314 400.074677,518.372314 390.699860,518.372314 
	C392.583710,536.328186 387.279907,554.670410 394.961670,572.644897 
	C384.550171,572.644897 374.242645,572.644897 362.913696,572.644897 
	C369.320099,564.014465 367.919739,554.705933 367.944427,545.651489 
	C368.010742,521.322205 367.942719,496.992615 367.981689,472.663208 
	C367.994202,464.855865 368.575409,456.977997 362.720825,449.227386 
	C372.815552,449.227386 381.687042,449.105652 390.545654,449.388123 
	C391.601532,449.421783 393.717377,452.142609 393.435242,452.801880 
	C389.377411,462.283600 391.285797,472.220886 390.917847,481.957642 
	C390.705536,487.576263 390.879303,493.209503 390.879303,499.029663 
	C399.767700,499.029663 408.192596,499.029663 417.618500,499.029663 
	C417.618500,493.277130 417.802094,487.685303 417.577850,482.109863 
	C417.186249,472.373383 419.116333,462.481201 415.298187,452.947876 
	C414.078796,449.903229 416.801392,449.313019 419.065521,449.264069 
	C425.895142,449.116425 432.733185,449.243103 439.555939,448.966675 
	C441.529114,448.886780 443.757629,448.235535 445.366943,447.121063 
	C460.115692,436.907135 474.578613,426.271606 489.485596,416.298187 
	C499.422455,409.649963 510.866333,406.006439 522.689026,405.337708 
	C536.275330,404.569275 549.000488,407.964508 559.233154,417.962311 
	C553.931091,421.846405 549.056824,425.706451 543.845825,429.040161 
	C542.466125,429.922852 539.631287,429.913879 538.174683,429.077576 
	C525.040588,421.536652 511.831024,424.427246 499.304199,429.692047 
	C487.743347,434.550873 476.960358,441.260468 465.834747,447.154846 
	C466.005524,447.680115 466.176300,448.205383 466.347076,448.730652 
	C482.962067,448.730652 499.577026,448.730652 516.690613,448.730652 
	C516.690613,456.823517 516.690613,464.352783 516.690613,472.482910 
	C506.991882,465.001221 495.944916,469.251678 485.217865,467.872955 
	C485.217865,478.484100 485.217865,488.560974 485.217865,499.640320 
	C493.026794,499.092316 500.633301,498.558472 508.583252,498.000549 
	C508.583252,504.838989 508.583252,512.693665 508.583252,519.586182 
	C501.120392,518.890503 493.408966,518.171692 485.327728,517.418396 
	C485.327728,530.036682 485.327728,541.760864 485.327728,554.119324 
	C496.231079,552.643982 507.633789,557.101013 518.602234,549.435425 
	C518.602234,556.869629 518.705200,563.743042 518.469238,570.604736 
	C518.440369,571.444153 516.598267,572.917419 515.589355,572.923462 
	C496.927063,573.036560 478.263794,572.973206 459.600800,572.922363 
	C459.333679,572.921631 459.067413,572.606995 458.357208,572.159241 
	C464.275970,563.650024 462.717224,553.847778 462.758026,544.328186 
	C462.868042,518.666199 462.925323,493.002350 462.704102,467.341827 
	C462.662750,462.543274 461.231049,457.756653 460.283203,452.007477 
	C453.447998,456.331970 447.744385,459.683136 442.386505,463.517456 
	C441.100952,464.437439 440.392639,466.960907 440.385223,468.751007 
	C440.264038,497.911102 440.107117,527.074219 440.469818,556.230347 
	C440.536987,561.629944 442.841980,567.001648 444.170776,572.625977 
	C434.395325,572.625977 423.906097,572.625977 412.994110,572.625977 
	C420.589752,559.747620 416.523712,545.860901 417.544098,532.003357 
z"/>
<path fill="#070706" opacity="1.000000" stroke="none" 
	d="
M1150.820801,590.869629 
	C1166.725952,577.579163 1184.401733,576.356873 1203.265503,581.463440 
	C1213.025513,584.105469 1222.750854,587.705811 1232.702515,588.648010 
	C1258.408325,591.081909 1278.667358,576.274963 1284.985229,550.963989 
	C1291.217651,525.995117 1291.212280,500.873505 1283.623291,476.139282 
	C1279.663452,463.233337 1271.163574,457.425934 1259.000244,458.239136 
	C1259.000244,460.828186 1259.000610,463.456329 1259.000244,466.084473 
	C1258.995728,496.075714 1258.789429,526.069519 1259.169556,556.055847 
	C1259.239258,561.556396 1261.690308,567.026855 1263.085571,572.687134 
	C1253.334961,572.687134 1242.821411,572.687134 1231.543579,572.687134 
	C1237.420532,565.030090 1236.370239,556.448364 1236.375366,548.070496 
	C1236.391113,522.080139 1236.459961,496.088837 1236.265869,470.099731 
	C1236.181152,458.761902 1239.238159,446.316101 1225.959961,438.800934 
	C1227.282593,437.983734 1227.806030,437.374786 1228.310181,437.390381 
	C1242.756714,437.837799 1257.319092,437.379639 1271.612305,439.122833 
	C1285.615601,440.830688 1295.609131,449.613831 1302.204712,462.163544 
	C1308.024170,473.236908 1310.726196,485.143250 1311.886230,497.442566 
	C1313.966187,519.496094 1312.966797,541.263611 1305.416382,562.388977 
	C1293.892944,594.631104 1264.354614,612.816711 1230.482666,607.181274 
	C1216.994141,604.937134 1203.890015,600.294067 1190.676270,596.514832 
	C1179.915283,593.437073 1169.189941,590.309326 1157.885254,593.112732 
	C1154.257935,594.012268 1150.776611,595.500488 1145.780396,597.216858 
	C1147.893799,594.514099 1149.223999,592.812988 1150.820801,590.869629 
z"/>
<path fill="#070606" opacity="1.000000" stroke="none" 
	d="
M655.682861,509.000732 
	C655.644470,521.157593 655.356384,532.820190 655.623108,544.470032 
	C656.115417,565.973694 640.026978,577.693176 623.483704,579.980530 
	C614.230286,581.259888 605.196228,580.283508 596.704102,576.240784 
	C582.924500,569.680969 577.570862,557.920837 577.469849,543.421082 
	C577.287659,517.276001 577.351562,491.128662 577.428528,464.982574 
	C577.449646,457.812592 577.680115,450.682587 572.788757,444.123657 
	C584.145691,444.123657 594.843933,444.123657 606.363953,444.123657 
	C599.716431,453.159973 601.211731,463.128418 601.181763,472.829285 
	C601.114319,494.645691 601.125488,516.462463 601.187744,538.278870 
	C601.196167,541.249329 601.436218,544.265015 601.990784,547.179443 
	C603.603638,555.655762 609.414185,560.204224 617.827393,559.847717 
	C625.626160,559.517212 631.010071,554.142029 631.857056,545.740112 
	C632.040161,543.923401 631.986084,542.079529 631.987061,540.248169 
	C632.000732,514.434692 632.151062,488.619843 631.904663,462.808807 
	C631.846191,456.688049 630.449829,450.580078 629.639221,444.233368 
	C638.850342,444.233368 649.285217,444.233368 660.545349,444.233368 
	C655.121094,451.268066 655.494568,458.892487 655.575867,466.533905 
	C655.724731,480.521637 655.659424,494.511627 655.682861,509.000732 
z"/>
<path fill="#070606" opacity="1.000000" stroke="none" 
	d="
M716.499268,506.381256 
	C718.436279,510.962219 720.197449,515.199463 721.958557,519.436768 
	C722.281921,519.393311 722.605225,519.349854 722.928589,519.306396 
	C722.928589,514.128601 722.929138,508.950867 722.928528,503.773102 
	C722.927429,494.945953 723.222229,486.105194 722.817566,477.296570 
	C722.558350,471.652496 721.266724,466.055878 720.376587,460.022522 
	C728.325439,460.022522 737.450256,460.022522 747.450378,460.022522 
	C741.896606,467.046448 742.633911,474.746429 742.630127,482.347656 
	C742.618530,505.662140 742.383240,528.977844 742.575317,552.290283 
	C742.630066,558.938782 743.844299,565.577637 744.602600,572.958008 
	C739.062500,572.958008 732.334961,573.135681 725.634399,572.791016 
	C724.454468,572.730347 722.938538,570.670227 722.335205,569.218628 
	C714.185547,549.610535 706.171326,529.946228 698.115723,510.299011 
	C697.813293,509.561462 697.431091,508.856659 696.518311,506.951782 
	C696.327576,509.321136 696.155945,510.477539 696.153442,511.634338 
	C696.123718,525.124695 695.861328,538.621887 696.216919,552.102539 
	C696.396118,558.898560 697.707947,565.664734 698.572205,572.991089 
	C697.777039,572.991089 695.830200,573.207703 693.946655,572.953979 
	C685.272339,571.785828 679.303650,575.740234 674.674438,582.643616 
	C671.199524,587.825500 666.277039,590.825195 659.170776,592.076721 
	C662.656555,586.475708 665.068665,581.095947 668.822693,576.923645 
	C674.322815,570.810669 676.684570,563.780762 676.742371,556.020752 
	C676.947144,528.541809 676.938293,501.059143 676.681519,473.580963 
	C676.639954,469.134216 674.927246,464.703125 673.879456,459.757019 
	C680.847107,459.757019 688.443604,459.650421 696.029541,459.885590 
	C697.031067,459.916656 698.408142,461.515900 698.885925,462.685211 
	C704.776733,477.103943 710.532654,491.577881 716.499268,506.381256 
z"/>
<path fill="#060606" opacity="1.000000" stroke="none" 
	d="
M1052.923706,484.009949 
	C1052.750977,475.756042 1054.095215,467.770569 1048.814331,460.043182 
	C1058.216797,460.043182 1066.972534,460.043182 1074.419067,460.043182 
	C1073.636230,467.310364 1072.320557,474.262604 1072.240601,481.229065 
	C1071.974365,504.380951 1072.028442,527.539001 1072.233765,550.692261 
	C1072.297363,557.875244 1073.234009,565.050537 1073.811890,572.774597 
	C1068.606201,572.774597 1062.337158,573.102356 1056.147095,572.547852 
	C1054.568237,572.406372 1052.701294,569.698303 1051.879883,567.778809 
	C1043.913818,549.166077 1036.144165,530.469421 1028.308594,511.800781 
	C1028.007202,511.082764 1027.605957,510.406616 1026.602661,509.795593 
	C1027.542358,530.649841 1023.358948,551.673584 1029.173340,572.628784 
	C1020.902100,572.628784 1012.078247,572.628784 1002.347595,572.628784 
	C1008.265137,564.568237 1007.079163,555.806580 1007.094788,547.244507 
	C1007.137634,523.756836 1007.297363,500.267242 1007.036011,476.782562 
	C1006.975220,471.324951 1005.422668,465.883911 1004.460999,459.834106 
	C1010.805664,459.834106 1018.336548,459.670319 1025.844360,460.012756 
	C1026.955444,460.063477 1028.322876,462.353851 1028.954102,463.865875 
	C1036.368896,481.629395 1043.664307,499.442749 1050.999023,517.239807 
	C1051.307007,517.987244 1051.689941,518.703796 1052.925781,519.392700 
	C1052.925781,507.764374 1052.925781,496.136017 1052.923706,484.009949 
z"/>
<path fill="#050505" opacity="1.000000" stroke="none" 
	d="
M860.538818,562.100098 
	C861.680542,565.782715 862.730469,569.043945 863.878052,572.608276 
	C863.024719,572.744324 862.259705,572.970215 861.494019,572.972412 
	C852.840698,572.997559 844.187256,572.988403 834.887024,572.988403 
	C841.737427,558.963135 838.449646,544.529846 838.835022,530.450500 
	C839.322754,512.633301 839.148499,494.789398 838.842590,476.964172 
	C838.748352,471.473419 837.288452,466.006104 836.390747,460.113281 
	C844.733337,460.113281 854.164001,460.113281 863.905334,460.113281 
	C856.877930,474.331512 861.626404,489.156311 859.785522,503.839111 
	C867.258301,503.839111 874.178589,503.839111 881.100647,503.833923 
	C883.288574,495.530792 881.582275,470.070435 878.062317,459.988831 
	C887.883789,459.988831 897.577332,459.988831 908.084290,459.988831 
	C902.934814,467.533356 903.483704,475.409088 903.495239,483.234558 
	C903.529541,506.397125 903.274963,529.562439 903.579285,552.720825 
	C903.664307,559.190674 905.293579,565.640137 906.267944,572.474365 
	C897.772522,572.474365 888.079712,572.474365 878.034058,572.474365 
	C884.690063,557.990723 880.846191,542.552917 881.897949,527.489868 
	C882.161804,523.711060 881.268311,522.026550 877.040588,522.326355 
	C871.596558,522.712524 866.104553,522.420410 860.447144,522.420410 
	C860.447144,535.790466 860.447144,548.734619 860.538818,562.100098 
z"/>
<path fill="#070707" opacity="1.000000" stroke="none" 
	d="
M1114.991211,477.732544 
	C1109.840942,484.176117 1109.449585,491.721008 1109.312500,498.888214 
	C1109.039673,513.173889 1109.646606,527.481873 1110.142578,541.771973 
	C1110.243530,544.680481 1111.136475,547.678955 1112.230469,550.409119 
	C1114.043823,554.934692 1117.905396,556.696899 1123.294067,555.924988 
	C1127.667969,555.298401 1130.465454,552.451965 1130.755249,548.367004 
	C1131.245117,541.459595 1130.889771,534.492249 1130.889771,526.845154 
	C1127.995239,527.170410 1125.307983,527.472351 1122.057983,527.837524 
	C1122.057983,522.574707 1122.057983,517.051819 1122.057983,511.150635 
	C1132.386597,511.150635 1143.275513,511.150635 1153.822876,511.150635 
	C1151.996338,531.734741 1151.679932,552.107056 1154.304688,573.006775 
	C1150.949585,573.006775 1146.827881,573.721375 1143.164917,572.734131 
	C1141.025513,572.157593 1139.619019,568.861328 1138.266113,567.246155 
	C1133.560425,569.299866 1128.293335,572.840149 1122.579468,573.848145 
	C1108.235107,576.378845 1096.844849,568.953979 1091.919678,555.170471 
	C1087.427246,542.597961 1086.589844,529.510437 1086.669312,516.339233 
	C1086.746704,503.500763 1087.710083,490.739532 1091.975708,478.477997 
	C1095.842041,467.364136 1103.412354,460.025421 1115.116211,458.248047 
	C1126.135132,456.574677 1136.833496,457.612335 1144.733398,467.081482 
	C1150.828491,474.387390 1151.916870,483.250824 1152.575562,492.656494 
	C1145.163818,494.420013 1137.824707,496.166260 1131.108765,497.764191 
	C1131.108765,493.246948 1131.806274,488.488251 1130.958496,484.022919 
	C1129.359497,475.599762 1122.848877,473.126434 1114.991211,477.732544 
z"/>
<path fill="#060606" opacity="1.000000" stroke="none" 
	d="
M972.094727,477.714722 
	C976.764587,499.859772 981.267639,521.603821 986.068787,543.281799 
	C988.232117,553.049438 990.989868,562.685364 993.520691,572.547852 
	C984.929993,572.547852 975.164795,572.547852 964.386169,572.547852 
	C970.780029,564.892090 966.758118,557.341003 965.677734,549.492432 
	C958.382446,549.492432 951.155579,549.492432 943.439514,549.492432 
	C942.365845,557.071289 938.691772,564.638550 944.200439,572.715088 
	C934.380493,572.715088 925.362793,572.715088 916.340027,572.715088 
	C924.095215,556.125305 925.358215,538.094971 929.613953,520.854553 
	C933.386108,505.573212 936.279419,490.061737 939.111633,474.569733 
	C939.942322,470.026093 939.239502,465.202118 939.239502,459.995911 
	C949.620972,459.995911 960.627625,459.995911 970.734741,459.995911 
	C971.189270,465.973999 971.619385,471.630402 972.094727,477.714722 
M946.853882,527.271240 
	C946.533813,529.018188 946.213806,530.765076 945.866394,532.661255 
	C951.778625,532.661255 957.309937,532.661255 963.331055,532.661255 
	C960.544434,517.420166 957.838257,502.619263 955.132080,487.818359 
	C954.858398,487.869568 954.584656,487.920776 954.310974,487.971954 
	C951.866699,500.784454 949.422363,513.596924 946.853882,527.271240 
z"/>
<path fill="#070707" opacity="1.000000" stroke="none" 
	d="
M818.356201,469.672791 
	C823.228882,477.383545 824.218994,485.752930 825.211853,494.849030 
	C817.475403,496.720428 809.900574,498.552734 802.889465,500.248688 
	C802.889465,494.212769 803.398071,488.631073 802.734009,483.192535 
	C802.167664,478.553650 798.928162,475.165070 793.912964,475.281372 
	C789.168213,475.391449 785.552490,478.091583 784.732239,482.965118 
	C783.523254,490.148132 782.036743,497.426117 782.099426,504.651184 
	C782.220093,518.557678 783.318237,532.456909 784.093506,546.354492 
	C784.165161,547.638000 784.688782,548.953918 785.242798,550.142700 
	C787.321533,554.602661 790.902527,556.453552 795.760803,555.941223 
	C800.198181,555.473267 802.351807,552.237793 802.672241,548.555298 
	C803.220398,542.254883 802.823486,535.872253 802.823486,528.684082 
	C810.045410,530.404724 817.362976,532.148193 825.036011,533.976318 
	C824.922913,544.385559 823.875732,554.342102 818.316467,563.239319 
	C812.410034,572.692078 799.282898,576.695251 785.805298,573.634155 
	C774.285400,571.017761 766.991882,563.832214 763.940063,552.768982 
	C757.256165,528.538452 757.004089,504.107117 764.229126,479.984497 
	C769.541687,462.246948 785.119751,454.248077 803.042297,458.853729 
	C809.448669,460.500000 814.625305,463.688385 818.356201,469.672791 
z"/>
<path fill="#080707" opacity="1.000000" stroke="none" 
	d="
M1167.487793,569.411621 
	C1168.512085,565.546814 1169.958374,562.020874 1169.985352,558.484070 
	C1170.197144,530.679932 1170.280884,502.872467 1170.027222,475.069458 
	C1169.982056,470.123871 1168.188232,465.194183 1167.070801,459.601288 
	C1168.224976,459.601288 1170.293701,459.613312 1172.362183,459.599365 
	C1187.345581,459.498199 1202.330200,459.467926 1217.311523,459.230103 
	C1220.771240,459.175201 1222.030518,460.213593 1221.840820,463.800598 
	C1221.545654,469.384338 1221.762939,474.995178 1221.762939,481.624695 
	C1211.902588,474.531372 1201.760254,478.333405 1191.634399,477.095917 
	C1191.634399,486.557678 1191.634399,495.469116 1191.634399,505.488953 
	C1198.653442,504.786346 1205.694214,504.081573 1212.959229,503.354309 
	C1212.959229,509.676117 1212.959229,517.221436 1212.959229,523.606323 
	C1205.879639,522.956055 1198.983521,522.322632 1191.585205,521.643066 
	C1191.585205,533.044128 1191.585205,543.426208 1191.585205,554.381836 
	C1201.655884,553.256348 1212.207520,557.361572 1221.714722,549.548767 
	C1221.714722,557.516907 1221.714722,564.878662 1221.714722,572.633423 
	C1203.345825,572.633423 1184.951904,572.633423 1166.040894,572.633423 
	C1166.470093,571.610229 1166.861206,570.677795 1167.487793,569.411621 
z"/>
<path fill="#040404" opacity="1.000000" stroke="none" 
	d="
M329.225800,537.999512 
	C329.234894,543.998474 328.744873,549.556702 329.387421,554.980713 
	C330.088562,560.899414 331.838806,566.693787 333.168518,572.708740 
	C323.425629,572.708740 312.888458,572.708740 301.480652,572.708740 
	C309.329529,561.977051 306.602631,550.088135 306.755371,538.678650 
	C307.045410,517.019287 306.865082,495.353668 306.879852,473.690674 
	C306.880981,472.047913 306.880005,470.405151 306.880005,468.839172 
	C299.995758,467.185547 295.203857,467.841400 283.995300,472.034302 
	C283.995300,465.067047 283.859253,458.354309 284.156799,451.660858 
	C284.196777,450.761108 286.416199,449.230164 287.637329,449.219269 
	C308.298798,449.035461 328.962616,448.984436 349.623383,449.176270 
	C350.792175,449.187134 352.821228,451.470306 352.936127,452.824402 
	C353.329071,457.454590 353.116119,462.143951 352.994507,466.807129 
	C352.920380,469.649841 351.569916,470.990906 348.481201,470.379242 
	C342.419220,469.178772 336.320526,468.163940 329.225739,466.890778 
	C329.225739,491.341980 329.225739,514.420837 329.225800,537.999512 
z"/>
<path fill="#F5F4F5" opacity="1.000000" stroke="none" 
	d="
M946.916016,526.840332 
	C949.422363,513.596924 951.866699,500.784454 954.310974,487.971954 
	C954.584656,487.920776 954.858398,487.869568 955.132080,487.818359 
	C957.838257,502.619263 960.544434,517.420166 963.331055,532.661255 
	C957.309937,532.661255 951.778625,532.661255 945.866394,532.661255 
	C946.213806,530.765076 946.533813,529.018188 946.916016,526.840332 
z"/>
</svg>