<svg width="21" height="12" viewBox="0 0 21 12" fill="none" xmlns="http://www.w3.org/2000/svg">
<path d="M18.6674 7.91977C18.0994 7.91977 17.8154 7.63977 17.8154 7.07977C17.8154 6.63977 17.9794 6.08377 18.3074 5.41177C18.3234 5.37977 18.3994 5.23977 18.5354 4.99177C18.6794 4.73577 18.8834 4.37177 19.1474 3.89977H18.5234L18.4994 3.87577L18.5114 3.80377L18.5234 3.79177H19.2074L20.0714 2.27977C20.1434 2.31177 20.2274 2.32777 20.3234 2.32777C20.4354 2.32777 20.5554 2.28777 20.6834 2.20777C20.8194 2.13577 20.9114 2.05577 20.9594 1.96777L20.9954 1.97977L19.9154 3.79177H20.7434L20.7554 3.80377V3.87577L20.7314 3.89977H19.8554L19.0394 5.33977C18.5514 6.19577 18.3074 6.85577 18.3074 7.31977C18.3074 7.64777 18.4354 7.81177 18.6914 7.81177C19.0914 7.81177 19.4954 7.58777 19.9034 7.13977C20.0154 7.01977 20.1474 6.83977 20.2994 6.59977C20.4514 6.35977 20.5794 6.13177 20.6834 5.91577C20.6994 5.87577 20.7194 5.86377 20.7434 5.87977C20.7754 5.88777 20.7834 5.91177 20.7674 5.95177C20.6474 6.19177 20.5194 6.41977 20.3834 6.63577C20.2554 6.85177 20.1074 7.05177 19.9394 7.23577C19.5234 7.69177 19.0994 7.91977 18.6674 7.91977Z" fill="black"/>
<path d="M14.868 11.5556C14.628 11.5396 14.444 11.4436 14.316 11.2676C14.188 11.0996 14.1 10.8956 14.052 10.6556C14.004 10.4236 13.98 10.2076 13.98 10.0076C13.98 8.87164 14.336 7.38764 15.048 5.55564C16.008 3.13164 17.008 1.54764 18.048 0.803641C18.392 0.555641 18.708 0.431641 18.996 0.431641C19.372 0.431641 19.56 0.603641 19.56 0.947641C19.56 1.92364 18.236 3.63564 15.588 6.08364H15.6C14.816 8.08364 14.424 9.58364 14.424 10.5836C14.424 10.8796 14.468 11.0956 14.556 11.2316C14.644 11.3676 14.772 11.4356 14.94 11.4356C15.164 11.4356 15.364 11.3236 15.54 11.0996C15.716 10.8756 15.864 10.5916 15.984 10.2476C16.104 9.90364 16.184 9.55564 16.224 9.20364C16.232 9.14764 16.236 9.09164 16.236 9.03564C16.236 8.98764 16.236 8.93564 16.236 8.87964C16.236 8.59964 16.204 8.34764 16.14 8.12364C16.084 7.90764 16 7.75964 15.888 7.67964C15.496 7.67164 15.3 7.56764 15.3 7.36764C15.3 7.27164 15.356 7.22364 15.468 7.22364C15.652 7.22364 15.816 7.34764 15.96 7.59564C16.256 7.61164 16.508 7.57564 16.716 7.48764C16.924 7.39964 17.128 7.26364 17.328 7.07964C17.512 6.91964 17.68 6.72764 17.832 6.50364C17.984 6.27164 18.1 6.06764 18.18 5.89164C18.22 5.82764 18.248 5.79564 18.264 5.79564C18.28 5.79564 18.288 5.80764 18.288 5.83164C18.288 5.86364 18.28 5.89564 18.264 5.92764C17.968 6.51964 17.636 6.96764 17.268 7.27164C16.9 7.56764 16.492 7.70764 16.044 7.69164C16.14 7.79564 16.216 7.95564 16.272 8.17164C16.328 8.38764 16.356 8.62764 16.356 8.89164C16.356 9.18764 16.32 9.49164 16.248 9.80364C16.176 10.1236 16.076 10.4156 15.948 10.6796C15.82 10.9516 15.664 11.1676 15.48 11.3276C15.296 11.4876 15.092 11.5636 14.868 11.5556ZM15.684 5.87964C18.188 3.52764 19.44 1.87564 19.44 0.923641C19.44 0.659641 19.32 0.527641 19.08 0.527641C18.52 0.527641 17.844 1.27964 17.052 2.78364C16.524 3.76764 16.068 4.79964 15.684 5.87964Z" fill="black"/>
<path d="M13.2005 7.91986C12.7845 7.91986 12.5765 7.63186 12.5765 7.05586C12.5765 6.83186 12.6125 6.57586 12.6845 6.28786C12.1245 7.36786 11.5685 7.90786 11.0165 7.90786C10.7525 7.90786 10.5525 7.77586 10.4165 7.51186C10.3045 7.31186 10.2485 7.05986 10.2485 6.75586C10.2485 6.50786 10.2845 6.24786 10.3565 5.97586C10.4925 5.50386 10.7805 5.05986 11.2205 4.64386C11.7085 4.19586 12.1725 3.97186 12.6125 3.97186C13.0125 3.97186 13.2125 4.21186 13.2125 4.69186C13.2125 4.89986 13.1685 5.14386 13.0805 5.42386L13.8125 3.98386H13.8485C13.8725 4.02386 13.9245 4.04386 14.0045 4.04386C14.1645 4.04386 14.3685 3.94786 14.6165 3.75586L14.6405 3.77986L13.6205 5.77186C13.2125 6.56386 13.0085 7.16386 13.0085 7.57186C13.0085 7.73186 13.0805 7.81186 13.2245 7.81186C13.3205 7.81186 13.4365 7.77586 13.5725 7.70386C13.7085 7.63186 13.8525 7.51186 14.0045 7.34386C14.1965 7.11986 14.3605 6.90786 14.4965 6.70786C14.6405 6.49986 14.8045 6.21986 14.9885 5.86786C15.0125 5.82786 15.0365 5.80786 15.0605 5.80786C15.1085 5.80786 15.1085 5.84786 15.0605 5.92786C14.9165 6.19986 14.7605 6.47186 14.5925 6.74386C14.4325 7.00786 14.2365 7.25586 14.0045 7.48786C13.7165 7.77586 13.4485 7.91986 13.2005 7.91986ZM11.0645 7.82386C11.5125 7.82386 12.0885 7.19186 12.7925 5.92786C13.0165 5.52786 13.1285 5.12386 13.1285 4.71586C13.1285 4.28386 12.9885 4.06786 12.7085 4.06786C12.4045 4.06786 12.0605 4.31986 11.6765 4.82386C11.5245 5.03186 11.3925 5.23586 11.2805 5.43586C11.1765 5.63586 11.0925 5.82786 11.0285 6.01186C10.8605 6.49186 10.7765 6.92386 10.7765 7.30786C10.7765 7.65186 10.8725 7.82386 11.0645 7.82386Z" fill="black"/>
<path d="M8.3237 7.93195C7.8437 7.93195 7.6037 7.71995 7.6037 7.29595C7.6037 6.95995 7.7357 6.57595 7.9997 6.14395C8.0877 5.99195 8.3317 5.65195 8.7317 5.12395C8.9957 4.77195 9.1277 4.52395 9.1277 4.37995C9.1277 4.24395 9.0157 4.17595 8.7917 4.17595C8.6397 4.17595 8.4717 4.17995 8.2877 4.18795C8.1117 4.19595 7.9677 4.20395 7.8557 4.21195C7.8317 4.33995 7.7957 4.48795 7.7477 4.65595C7.6997 4.82395 7.6437 4.99995 7.5797 5.18395C7.5397 5.29595 7.4757 5.44795 7.3877 5.63995C7.3077 5.83195 7.1997 6.03595 7.0637 6.25195C7.0397 6.28395 7.0197 6.29995 7.0037 6.29995C6.9957 6.29995 6.9917 6.29195 6.9917 6.27595C6.9917 6.23595 7.0077 6.18395 7.0397 6.11995C7.1037 6.00795 7.1757 5.87195 7.2557 5.71195C7.3357 5.54395 7.4117 5.35995 7.4837 5.15995C7.5477 4.98395 7.6037 4.79995 7.6517 4.60795C7.7077 4.40795 7.7397 4.27195 7.7477 4.19995C7.5557 4.07995 7.4597 3.89995 7.4597 3.65995C7.4597 3.38795 7.5557 3.25195 7.7477 3.25195C7.8837 3.25195 7.9517 3.37595 7.9517 3.62395C7.9517 3.67995 7.9437 3.74795 7.9277 3.82795C7.9117 3.90795 7.8917 4.00395 7.8677 4.11595C7.9797 4.10795 8.1557 4.09995 8.3957 4.09195C8.6437 4.07595 8.8797 4.06795 9.1037 4.06795C9.5117 4.06795 9.7157 4.19195 9.7157 4.43995C9.7157 4.70395 9.3997 5.24795 8.7677 6.07195C8.6317 6.27195 8.4797 6.49995 8.3117 6.75595C8.1517 7.00395 8.0717 7.25995 8.0717 7.52395C8.0717 7.59595 8.0877 7.66395 8.1197 7.72795C8.1517 7.79195 8.2197 7.82395 8.3237 7.82395C8.6677 7.82395 9.0477 7.61595 9.4637 7.19995C9.6717 6.99195 9.8637 6.76795 10.0397 6.52795C10.2157 6.28795 10.3757 6.01995 10.5197 5.72395C10.5517 5.65995 10.5797 5.62795 10.6037 5.62795C10.6197 5.62795 10.6277 5.63995 10.6277 5.66395C10.6277 5.70395 10.6157 5.74795 10.5917 5.79595C10.4557 6.07595 10.2917 6.34795 10.0997 6.61195C9.9077 6.86795 9.6957 7.11195 9.4637 7.34395C9.0717 7.73595 8.6917 7.93195 8.3237 7.93195Z" fill="black"/>
<path d="M2.64 8.46C1.824 8.46 1.18 8.22 0.708 7.74C0.236 7.252 0 6.6 0 5.784C0 4.496 0.536 3.328 1.608 2.28C1.2 1.928 0.996 1.544 0.996 1.128C0.996 0.376 1.444 0 2.34 0C2.572 0 2.796 0.036 3.012 0.108C3.236 0.172 3.452 0.272 3.66 0.408L3.672 0.42C3.688 0.427999 3.692 0.44 3.684 0.456C3.684 0.464 3.684 0.476 3.684 0.491999C3.684 0.516 3.676 0.528 3.66 0.528C3.652 0.528 3.628 0.516 3.588 0.491999C3.228 0.276 2.864 0.168 2.496 0.168C2.144 0.168 1.852 0.252 1.62 0.42C1.356 0.596 1.224 0.859999 1.224 1.212C1.224 1.548 1.392 1.872 1.728 2.184C2.768 1.216 4.076 0.732 5.652 0.732C6.18 0.732 6.636 0.808 7.02 0.96C7.572 1.16 7.848 1.48 7.848 1.92C7.848 2.256 7.628 2.548 7.188 2.796C7.036 2.892 6.868 2.976 6.684 3.048C6.5 3.112 6.304 3.164 6.096 3.204C5.736 3.276 5.348 3.312 4.932 3.312C3.836 3.312 2.896 3.084 2.112 2.628C1.208 3.644 0.756 4.744 0.756 5.928C0.756 6.576 0.904 7.12 1.2 7.56C1.536 8.072 2.016 8.328 2.64 8.328C3.832 8.328 4.808 7.756 5.568 6.612C5.824 6.22 5.952 5.864 5.952 5.544C5.952 5.264 5.856 5.036 5.664 4.86C5.48 4.676 5.248 4.584 4.968 4.584C4.696 4.584 4.444 4.664 4.212 4.824C3.972 4.976 3.8 5.184 3.696 5.448C3.672 5.512 3.644 5.544 3.612 5.544C3.58 5.544 3.564 5.524 3.564 5.484C3.564 5.476 3.564 5.468 3.564 5.46C3.572 5.444 3.576 5.432 3.576 5.424C3.68 5.128 3.872 4.896 4.152 4.728C4.416 4.56 4.708 4.476 5.028 4.476C5.372 4.476 5.66 4.58 5.892 4.788C6.108 5.004 6.216 5.28 6.216 5.616C6.216 6 6.1 6.368 5.868 6.72C5.548 7.232 5.08 7.652 4.464 7.98C3.872 8.3 3.264 8.46 2.64 8.46ZM4.644 3.156C4.94 3.156 5.232 3.132 5.52 3.084C5.808 3.036 6.096 2.972 6.384 2.892C7.184 2.636 7.584 2.284 7.584 1.836C7.584 1.196 6.972 0.875999 5.748 0.875999C4.444 0.875999 3.264 1.428 2.208 2.532C2.928 2.948 3.74 3.156 4.644 3.156Z" fill="black"/>
</svg>
