<svg version="1.1" id="Layer_1" xmlns="http://www.w3.org/2000/svg" xmlns:xlink="http://www.w3.org/1999/xlink" x="0px" y="0px"
	 width="100%" viewBox="0 0 1536 1024" enable-background="new 0 0 1536 1024" xml:space="preserve">
<path fill="#F4EAE0" opacity="1.000000" stroke="none" 
	d="
M1418.000000,1025.000000 
	C945.333313,1025.000000 473.166656,1025.000000 1.000000,1025.000000 
	C1.000000,683.666687 1.000000,342.333344 1.000000,1.000000 
	C513.000000,1.000000 1025.000000,1.000000 1537.000000,1.000000 
	C1537.000000,342.333344 1537.000000,683.666687 1537.000000,1025.000000 
	C1497.500000,1025.000000 1458.000000,1025.000000 1418.000000,1025.000000 
M334.629791,571.376526 
	C334.629791,571.376526 334.567505,571.328430 334.725861,570.562378 
	C334.001801,569.909973 333.277740,569.257629 332.465546,568.491150 
	C332.465546,568.491150 332.399445,568.362976 332.701263,567.616638 
	C332.086700,553.461914 331.200989,539.312378 330.929260,525.151062 
	C330.620209,509.046173 330.939117,492.930054 330.806549,476.820282 
	C330.772217,472.649323 332.957306,471.379028 336.533691,470.894043 
	C341.857513,470.172150 345.740723,472.527740 349.046112,476.707733 
	C350.502960,475.357300 351.757599,474.194305 353.135925,472.097168 
	C353.141083,467.933624 353.160492,463.770020 353.148590,459.606506 
	C353.118317,449.019775 353.112762,449.041229 342.593048,449.051575 
	C324.606323,449.069244 306.619629,449.051636 288.632904,449.065033 
	C286.530670,449.066620 283.939484,448.510254 283.905792,451.863983 
	C283.836548,458.752777 283.884979,465.642761 283.884979,473.914642 
	C290.958679,466.828918 298.610413,467.872711 306.365906,468.366852 
	C306.494446,469.336212 306.691406,470.131500 306.692169,470.926941 
	C306.719360,499.571838 306.893585,528.218628 306.565308,556.859619 
	C306.514832,561.263611 304.145203,565.642517 302.835541,570.029236 
	C302.575256,570.901062 302.257233,571.755676 301.838715,572.994507 
	C312.438049,572.994507 322.587891,573.014709 332.737183,572.949280 
	C333.415985,572.944885 334.090607,572.291565 335.091644,571.850403 
	C335.091644,571.850403 335.106079,571.448364 335.106079,571.448364 
	C335.106079,571.448364 334.661652,571.448547 334.629791,571.376526 
M671.753479,571.442322 
	C670.842529,572.975830 669.931519,574.509277 668.727356,576.651489 
	C665.571045,581.607361 662.414673,586.563171 658.913513,592.060364 
	C660.678833,591.786133 662.026672,591.958862 662.854797,591.383545 
	C666.993469,588.508606 671.824585,586.097656 674.859863,582.286987 
	C679.944031,575.904053 685.522644,572.005798 693.924011,573.017944 
	C695.934082,573.260132 697.998108,573.053833 699.726318,573.053833 
	C698.540833,568.538452 696.764771,564.778809 696.694153,560.987427 
	C696.378662,544.052856 696.548401,527.109253 696.577515,510.168976 
	C696.577698,510.057068 697.064636,509.946014 697.745483,509.653778 
	C706.424194,530.733704 715.101318,551.809814 723.662659,572.604492 
	C731.286316,572.604492 738.631348,572.604492 744.781738,572.604492 
	C744.083923,565.968567 743.136047,559.681458 742.835449,553.363586 
	C742.503540,546.389587 742.746826,539.387268 742.771790,532.397339 
	C742.842407,512.599304 742.929504,492.801239 743.322876,472.831024 
	C743.393127,472.736633 743.543396,472.596558 743.519958,472.555634 
	C743.408325,472.360077 743.249573,472.191406 743.025513,471.237244 
	C744.250000,467.415344 745.474487,463.593475 746.728760,459.678772 
	C737.424988,459.678772 728.270813,459.678772 719.359314,459.678772 
	C726.202332,478.897400 721.161255,498.245636 722.240723,517.400635 
	C719.400696,512.765930 717.324463,508.004700 715.402283,503.182068 
	C709.813599,489.160065 704.286560,475.113464 699.246277,460.685791 
	C698.476746,459.667664 697.755127,457.811890 696.929993,457.764709 
	C690.675598,457.407166 684.398743,457.468109 678.133362,457.262512 
	C675.126038,457.163849 672.823853,458.566467 672.892639,461.436188 
	C672.933289,461.613647 672.973999,461.791138 672.978760,462.721741 
	C672.617065,464.663208 671.941711,466.610107 671.975403,468.544678 
	C672.014771,470.805298 672.872620,473.041901 673.023315,475.312286 
	C673.414062,481.198029 673.655884,487.094971 673.877075,492.990417 
	C674.315674,504.682281 674.802734,516.373718 675.071411,528.070007 
	C675.250366,535.861389 675.105591,543.660828 675.054138,551.456360 
	C675.046631,552.596985 674.730652,553.733154 674.594727,554.875854 
	C673.940552,560.375854 673.299194,565.877380 672.580383,571.550415 
	C672.580383,571.550415 672.444458,571.678467 671.753479,571.442322 
M1073.008423,468.255768 
	C1074.073853,465.435303 1075.139404,462.614838 1076.236938,459.709625 
	C1066.793823,459.709625 1057.959351,459.709625 1049.483154,459.709625 
	C1056.247681,479.415924 1051.154663,499.195374 1052.454346,518.698120 
	C1044.174194,500.191040 1036.568359,481.605560 1028.874146,463.056702 
	C1028.305054,461.684723 1027.139771,459.544312 1026.185791,459.508270 
	C1018.483093,459.217377 1010.764587,459.345154 1003.299683,459.345154 
	C1004.694214,464.183258 1006.784058,468.228088 1006.877686,472.318604 
	C1007.262268,489.128784 1007.505981,505.969421 1006.908875,522.767090 
	C1006.315552,539.455811 1010.309998,556.523438 1003.121582,572.540649 
	C1012.356750,572.540649 1021.351257,572.540649 1030.580933,572.540649 
	C1026.494873,564.726990 1024.230835,519.612488 1027.409058,509.470154 
	C1036.244019,530.879944 1044.888062,551.827026 1053.512817,572.727417 
	C1060.800415,572.727417 1068.048218,572.727417 1075.453613,572.727417 
	C1074.580078,569.929199 1073.809204,567.459900 1073.487183,564.449097 
	C1074.807007,562.580566 1076.126831,560.712036 1077.673340,558.522522 
	C1072.882446,557.184448 1073.899902,553.221863 1073.898193,549.707703 
	C1073.886841,524.737854 1073.917969,499.768005 1073.866943,474.798279 
	C1073.863037,472.868988 1073.335083,470.940735 1073.008423,468.255768 
M1235.468384,553.460693 
	C1235.641724,554.973511 1235.814941,556.486267 1236.159302,558.821106 
	C1234.976074,563.490906 1233.792969,568.160706 1232.648438,572.678528 
	C1242.913208,572.678528 1253.452515,572.678528 1263.172485,572.678528 
	C1261.758423,567.015442 1259.277100,561.547180 1259.205444,556.047485 
	C1258.814453,526.060242 1259.016968,496.065125 1259.015259,466.072723 
	C1259.015137,463.449524 1259.015137,460.826324 1259.015137,458.124908 
	C1268.133057,457.601196 1274.878662,460.713745 1279.298584,468.153320 
	C1281.072021,471.138336 1282.840210,474.272308 1283.795532,477.574371 
	C1291.190430,503.132538 1291.591431,528.972717 1283.719116,554.297913 
	C1275.527710,580.649780 1252.526245,593.222717 1225.471069,587.462891 
	C1217.195679,585.701111 1209.125000,582.984619 1200.949463,580.746094 
	C1184.886841,576.348145 1169.572632,577.977112 1155.479492,587.098328 
	C1151.907349,589.410278 1149.085693,592.881775 1145.919189,595.820435 
	C1146.220337,596.212402 1146.521484,596.604370 1146.822632,596.996338 
	C1147.549438,596.785461 1148.328857,596.680054 1148.995117,596.347717 
	C1158.015381,591.847900 1167.534302,591.061829 1177.207520,593.160889 
	C1183.525024,594.531799 1189.755737,596.453491 1195.871826,598.571350 
	C1209.577515,603.317078 1223.300293,607.689453 1237.999023,608.206421 
	C1269.228271,609.304688 1293.966064,592.961670 1305.075317,563.823792 
	C1312.408203,544.590698 1313.752563,524.628235 1312.613403,504.367004 
	C1311.786255,489.656708 1309.366943,475.285522 1302.359497,462.035431 
	C1295.066895,448.246490 1283.733765,439.609619 1268.292480,438.199524 
	C1254.590210,436.948212 1240.719971,437.530823 1226.923584,437.336731 
	C1226.722168,437.333893 1226.514771,437.757050 1226.031372,438.287140 
	C1226.414429,438.892456 1226.708618,439.988831 1227.382324,440.325226 
	C1234.358276,443.808075 1235.885376,450.175659 1236.182739,457.052094 
	C1236.419922,462.540283 1236.244507,468.046906 1236.229614,473.545319 
	C1236.157959,500.029297 1236.078369,526.513306 1235.468384,553.460693 
M450.745972,459.290497 
	C460.002960,461.180298 460.044281,461.180237 460.061188,470.881897 
	C460.096252,491.004456 460.035004,511.127258 460.127838,531.249451 
	C460.147552,535.523071 460.658508,539.794312 460.939484,544.066895 
	C461.310913,549.715088 461.678680,555.363586 462.096191,561.801208 
	C460.926025,565.447266 459.755829,569.093323 458.612915,572.654358 
	C478.537567,572.654358 498.422699,572.654358 518.320068,572.654358 
	C518.320068,564.776306 518.320068,557.319092 518.320068,549.463379 
	C507.737671,557.058899 496.323639,552.713440 485.353943,554.115234 
	C485.353943,541.783203 485.353943,530.071594 485.353943,517.380310 
	C493.458313,518.201294 501.162781,518.981750 508.751404,519.750549 
	C508.751404,512.676331 508.751404,504.754791 508.751404,497.880096 
	C500.818176,498.460388 493.079590,499.026398 485.373016,499.590088 
	C485.373016,488.389801 485.373016,478.333740 485.373016,467.911804 
	C496.175659,469.296570 507.259613,464.938232 517.032227,473.038879 
	C517.032227,464.490845 517.032227,456.906555 517.032227,448.876709 
	C499.998016,448.876709 483.299683,448.876709 466.601349,448.876709 
	C466.402191,448.356750 466.203033,447.836823 466.003876,447.316864 
	C476.760315,441.561340 487.153625,434.932953 498.364197,430.269043 
	C512.702942,424.303772 527.680359,420.388184 540.840454,431.603119 
	C547.318604,426.909119 553.399658,422.502838 559.550659,418.045898 
	C551.158447,409.244141 539.898438,405.571899 527.663757,405.136749 
	C514.211609,404.658234 501.467163,408.475616 490.273438,415.704834 
	C475.615082,425.171661 461.546692,435.560608 447.356873,445.737457 
	C444.255432,447.961792 441.307129,449.234253 437.369659,449.074829 
	C429.425568,448.753296 421.459320,448.979065 413.281342,448.979065 
	C420.787598,465.512878 415.852203,482.339630 417.521118,498.966125 
	C408.197632,498.966125 399.777618,498.966125 390.663605,498.966125 
	C392.616486,482.301666 387.178772,465.321075 395.571564,449.283569 
	C384.636322,449.283569 374.070465,449.283569 364.325134,449.283569 
	C365.561310,455.125916 367.733704,460.831543 367.816467,466.567291 
	C368.191528,492.550446 368.035522,518.542236 367.943207,544.530518 
	C367.909363,554.058289 369.411621,563.875671 362.874420,572.633667 
	C374.169159,572.633667 384.675659,572.633667 395.109100,572.633667 
	C387.281555,554.741150 392.625366,536.381470 390.715271,518.453125 
	C400.055603,518.453125 408.486145,518.453125 417.690094,518.453125 
	C415.481171,536.680115 421.297241,555.102539 413.238556,572.753479 
	C423.854645,572.753479 434.401794,572.753479 445.816956,572.753479 
	C441.436829,566.464600 439.841064,560.036865 441.382202,552.625427 
	C441.182495,551.063843 440.982788,549.502319 440.489136,547.050354 
	C440.608032,533.044006 440.726929,519.037659 441.192505,504.820923 
	C441.067078,504.535187 440.941681,504.249451 440.526093,503.261139 
	C440.620972,502.520416 440.715851,501.779724 441.167389,500.832794 
	C441.047791,500.542480 440.928192,500.252167 440.515228,499.068604 
	C440.539764,491.296844 441.205658,483.459137 440.415680,475.771088 
	C439.557739,467.421814 442.013153,461.844757 450.745972,459.290497 
M607.803589,556.971558 
	C602.620117,553.051514 601.430725,547.427490 601.407898,541.437866 
	C601.325195,519.773926 601.165833,498.107941 601.386902,476.446350 
	C601.498413,465.525146 599.105835,454.152924 606.744568,443.951813 
	C594.973145,443.951813 584.082275,443.951813 574.444336,443.951813 
	C575.391235,450.467896 577.051453,456.850952 577.121338,463.251434 
	C577.416077,490.245392 577.209656,517.244629 577.240540,544.241821 
	C577.260559,561.784180 587.416565,575.189209 604.411194,578.893127 
	C610.769531,580.278931 617.652466,580.575012 624.128479,579.856506 
	C643.519958,577.705322 655.799744,563.352783 655.791565,543.911255 
	C655.780640,517.914124 655.846802,491.916718 655.747375,465.919952 
	C655.718567,458.390320 655.385986,450.893616 661.046814,444.112122 
	C649.465271,444.112122 638.697571,444.112122 628.436951,444.112122 
	C629.659912,448.529480 631.745789,452.631622 631.783875,456.752716 
	C632.051880,485.746185 632.174561,514.747498 631.757935,543.737915 
	C631.560791,557.453613 621.042358,563.230286 607.803589,556.971558 
M864.640869,504.105255 
	C863.207336,504.006409 861.773865,503.907562 859.853210,503.775116 
	C861.616211,488.931763 856.938416,473.962952 864.390442,459.615082 
	C854.227661,459.615082 844.724915,459.615082 834.188538,459.615082 
	C840.824097,469.174530 838.626160,479.346252 838.874634,489.178955 
	C839.080688,497.335632 839.345215,505.524384 838.875183,513.657959 
	C837.736633,533.356689 842.203064,553.401123 835.382141,572.679932 
	C844.869995,572.679932 854.410095,572.679932 864.102234,572.679932 
	C856.890442,556.349792 861.716492,539.562317 859.913696,522.890503 
	C867.432861,522.890503 874.321411,522.890503 881.985962,522.890503 
	C880.279724,539.694641 885.116150,556.544861 877.785950,572.596252 
	C888.016113,572.596252 897.862976,572.596252 906.371887,572.596252 
	C905.464172,565.560425 903.937866,558.809631 903.840698,552.038391 
	C903.529907,530.389709 903.668518,508.733032 903.801758,487.080475 
	C903.858154,477.910950 902.095520,468.417053 908.617737,459.761139 
	C897.766479,459.761139 887.821899,459.761139 877.574036,459.761139 
	C884.639709,474.355408 880.553711,489.206085 881.896790,504.094086 
	C875.899414,504.094086 870.757263,504.094086 864.640869,504.105255 
M1130.413452,498.070465 
	C1137.802856,496.307098 1145.192383,494.543732 1153.268677,492.616486 
	C1152.076904,486.774414 1151.366089,480.981567 1149.656616,475.500122 
	C1147.561768,468.782257 1143.365967,463.208771 1136.702271,460.422791 
	C1120.793701,453.771454 1098.362183,456.624298 1091.867188,479.171570 
	C1088.817871,489.757141 1087.458130,500.990326 1086.665527,512.025757 
	C1085.588745,527.017334 1086.856445,541.989258 1092.142456,556.285950 
	C1097.001587,569.427734 1109.323364,576.793762 1123.024048,573.937378 
	C1128.579224,572.779114 1133.665161,569.370422 1138.860718,567.032532 
	C1140.631958,573.684387 1144.208740,574.998718 1154.320557,572.518372 
	C1151.809814,551.998169 1152.151001,531.641663 1154.015991,510.864197 
	C1143.433105,510.864197 1132.391846,510.864197 1121.685425,510.864197 
	C1121.685425,516.959717 1121.685425,522.683716 1121.685425,528.256287 
	C1124.920654,527.747559 1127.718140,527.307678 1130.876831,526.810974 
	C1130.876831,534.387817 1131.257202,541.202209 1130.743408,547.948364 
	C1130.399536,552.462463 1127.424072,555.477600 1122.560425,555.949097 
	C1117.692993,556.421021 1113.927979,554.657227 1112.248657,549.948914 
	C1111.142700,546.847961 1110.198608,543.518494 1110.092163,540.261658 
	C1109.646606,526.637329 1109.191284,512.994263 1109.482544,499.373993 
	C1109.608032,493.504333 1111.243408,487.595520 1112.749146,481.850281 
	C1113.871704,477.567993 1117.176880,475.333466 1121.762451,475.499542 
	C1126.560303,475.673248 1130.060791,478.364197 1130.602051,482.805664 
	C1131.181885,487.563965 1130.175781,492.515564 1130.413452,498.070465 
M978.509155,572.988831 
	C983.928345,572.988831 989.347595,572.988831 994.761597,572.988831 
	C993.041321,568.363098 991.016968,564.358276 990.063293,560.112976 
	C985.291504,538.872498 980.352600,517.651978 976.386047,496.255127 
	C974.163025,484.263397 968.257935,472.560883 972.242310,459.812805 
	C960.764771,459.812805 949.458374,459.812805 939.218140,459.812805 
	C939.218140,464.931580 939.780823,469.528778 939.098816,473.933258 
	C937.751404,482.635406 936.007202,491.302551 933.908264,499.856903 
	C927.966492,524.073547 925.287720,549.085999 916.616272,572.717773 
	C925.408691,572.717773 934.583496,572.717773 944.526245,572.717773 
	C938.650208,564.877441 942.652954,557.377197 943.334167,549.660156 
	C951.043884,549.660156 958.274963,549.660156 965.601929,549.660156 
	C966.645874,557.501648 970.663330,565.053589 964.622437,572.184387 
	C965.489563,572.649658 965.754639,572.914307 966.022888,572.917419 
	C969.853516,572.962646 973.684631,572.972595 978.509155,572.988831 
M766.283020,473.833221 
	C765.121704,477.113983 763.674561,480.324341 762.845581,483.687012 
	C757.615784,504.899475 757.723083,526.251831 762.257507,547.507629 
	C765.912109,564.639099 774.453247,572.772827 791.072083,574.518250 
	C801.715637,575.636047 811.816772,573.318726 818.270020,563.507202 
	C824.167847,554.540222 824.971252,544.309204 825.128296,533.881531 
	C817.244812,531.919556 809.745178,530.053101 801.631104,528.033752 
	C802.006226,529.786865 802.489319,531.016907 802.495483,532.249268 
	C802.524170,537.969666 802.788513,543.726624 802.234192,549.398804 
	C801.868896,553.137634 799.215027,555.644043 795.147156,555.937500 
	C790.902527,556.243652 787.653870,554.525635 785.782166,550.691650 
	C784.919312,548.924377 784.086975,546.953796 783.982422,545.034973 
	C783.233337,531.278503 782.255920,517.512390 782.230286,503.747711 
	C782.217102,496.695831 783.785400,489.598236 785.076904,482.602173 
	C785.890137,478.196777 789.153198,475.787872 793.615356,475.565460 
	C798.280212,475.333008 801.312866,477.990021 802.286987,482.282410 
	C803.111450,485.915466 803.213562,489.764740 803.198914,493.516632 
	C803.189941,495.831207 802.362732,498.142548 801.858765,500.677155 
	C810.013123,498.711334 817.526672,496.899963 824.913391,495.119202 
	C825.200623,475.737732 817.677795,462.886353 803.975586,458.860718 
	C788.551331,454.329132 775.183960,459.466125 766.283020,473.833221 
M1213.527100,515.437439 
	C1213.527100,511.009521 1213.527100,506.581604 1213.527100,503.079834 
	C1205.963623,503.946777 1198.909546,504.755341 1191.859497,505.563416 
	C1191.859497,495.590424 1191.859497,486.690308 1191.859497,477.362854 
	C1201.984741,478.645233 1212.213379,474.647278 1221.601074,481.661621 
	C1221.601074,473.935608 1221.601074,466.896271 1221.601074,459.772217 
	C1202.956543,459.772217 1184.510498,459.772217 1167.462158,459.772217 
	C1168.379028,466.801788 1169.883911,473.388702 1169.980591,479.996185 
	C1170.290283,501.139954 1170.251221,522.293518 1169.990479,543.438904 
	C1169.869751,553.228149 1172.172852,563.435364 1165.403564,572.701416 
	C1184.749390,572.701416 1203.261597,572.701416 1221.663818,572.701416 
	C1221.663818,564.860901 1221.663818,557.371582 1221.663818,549.482056 
	C1212.122070,557.266724 1201.599976,553.092407 1191.842896,554.207581 
	C1191.842896,543.281616 1191.842896,533.035217 1191.842896,521.745972 
	C1199.212891,522.530029 1206.085083,523.261108 1213.530518,524.053101 
	C1213.530518,522.251770 1213.530518,519.322876 1213.527100,515.437439 
M670.308105,460.844818 
	C670.382874,460.794250 670.457703,460.743683 670.308105,460.844818 
z"/>
<path fill="#060505" opacity="1.000000" stroke="none" 
	d="
M440.771698,553.065796 
	C439.841064,560.036865 441.436829,566.464600 445.816956,572.753479 
	C434.401794,572.753479 423.854645,572.753479 413.238556,572.753479 
	C421.297241,555.102539 415.481171,536.680115 417.690094,518.453125 
	C408.486145,518.453125 400.055603,518.453125 390.715271,518.453125 
	C392.625366,536.381470 387.281555,554.741150 395.109100,572.633667 
	C384.675659,572.633667 374.169159,572.633667 362.874420,572.633667 
	C369.411621,563.875671 367.909363,554.058289 367.943207,544.530518 
	C368.035522,518.542236 368.191528,492.550446 367.816467,466.567291 
	C367.733704,460.831543 365.561310,455.125916 364.325134,449.283569 
	C374.070465,449.283569 384.636322,449.283569 395.571564,449.283569 
	C387.178772,465.321075 392.616486,482.301666 390.663605,498.966125 
	C399.777618,498.966125 408.197632,498.966125 417.521118,498.966125 
	C415.852203,482.339630 420.787598,465.512878 413.281342,448.979065 
	C421.459320,448.979065 429.425568,448.753296 437.369659,449.074829 
	C441.307129,449.234253 444.255432,447.961792 447.356873,445.737457 
	C461.546692,435.560608 475.615082,425.171661 490.273438,415.704834 
	C501.467163,408.475616 514.211609,404.658234 527.663757,405.136749 
	C539.898438,405.571899 551.158447,409.244141 559.550659,418.045898 
	C553.399658,422.502838 547.318604,426.909119 540.840454,431.603119 
	C527.680359,420.388184 512.702942,424.303772 498.364197,430.269043 
	C487.153625,434.932953 476.760315,441.561340 466.003876,447.316864 
	C466.203033,447.836823 466.402191,448.356750 466.601349,448.876709 
	C483.299683,448.876709 499.998016,448.876709 517.032227,448.876709 
	C517.032227,456.906555 517.032227,464.490845 517.032227,473.038879 
	C507.259613,464.938232 496.175659,469.296570 485.373016,467.911804 
	C485.373016,478.333740 485.373016,488.389801 485.373016,499.590088 
	C493.079590,499.026398 500.818176,498.460388 508.751404,497.880096 
	C508.751404,504.754791 508.751404,512.676331 508.751404,519.750549 
	C501.162781,518.981750 493.458313,518.201294 485.353943,517.380310 
	C485.353943,530.071594 485.353943,541.783203 485.353943,554.115234 
	C496.323639,552.713440 507.737671,557.058899 518.320068,549.463379 
	C518.320068,557.319092 518.320068,564.776306 518.320068,572.654358 
	C498.422699,572.654358 478.537567,572.654358 458.612915,572.654358 
	C459.755829,569.093323 460.926025,565.447266 462.271454,561.043823 
	C462.573395,559.469421 462.811066,558.652344 462.810730,557.835327 
	C462.798035,527.109009 462.862671,496.381866 462.616730,465.657227 
	C462.582825,461.422272 460.994324,457.199768 459.923065,451.986115 
	C455.875641,454.861359 452.953979,456.936859 450.032349,459.012390 
	C442.013153,461.844757 439.557739,467.421814 440.415680,475.771088 
	C441.205658,483.459137 440.539764,491.296844 440.558411,499.784729 
	C440.671326,500.680237 440.741028,500.859619 440.810699,501.039001 
	C440.715851,501.779724 440.620972,502.520416 440.569641,503.882355 
	C440.690735,504.679504 440.768311,504.855408 440.845856,505.031311 
	C440.726929,519.037659 440.608032,533.044006 440.510437,547.910400 
	C440.611725,550.202271 440.691711,551.634033 440.771698,553.065796 
z"/>
<path fill="#060605" opacity="1.000000" stroke="none" 
	d="
M1236.001709,552.997253 
	C1236.078369,526.513306 1236.157959,500.029297 1236.229614,473.545319 
	C1236.244507,468.046906 1236.419922,462.540283 1236.182739,457.052094 
	C1235.885376,450.175659 1234.358276,443.808075 1227.382324,440.325226 
	C1226.708618,439.988831 1226.414429,438.892456 1226.031372,438.287140 
	C1226.514771,437.757050 1226.722168,437.333893 1226.923584,437.336731 
	C1240.719971,437.530823 1254.590210,436.948212 1268.292480,438.199524 
	C1283.733765,439.609619 1295.066895,448.246490 1302.359497,462.035431 
	C1309.366943,475.285522 1311.786255,489.656708 1312.613403,504.367004 
	C1313.752563,524.628235 1312.408203,544.590698 1305.075317,563.823792 
	C1293.966064,592.961670 1269.228271,609.304688 1237.999023,608.206421 
	C1223.300293,607.689453 1209.577515,603.317078 1195.871826,598.571350 
	C1189.755737,596.453491 1183.525024,594.531799 1177.207520,593.160889 
	C1167.534302,591.061829 1158.015381,591.847900 1148.995117,596.347717 
	C1148.328857,596.680054 1147.549438,596.785461 1146.822632,596.996338 
	C1146.521484,596.604370 1146.220337,596.212402 1145.919189,595.820435 
	C1149.085693,592.881775 1151.907349,589.410278 1155.479492,587.098328 
	C1169.572632,577.977112 1184.886841,576.348145 1200.949463,580.746094 
	C1209.125000,582.984619 1217.195679,585.701111 1225.471069,587.462891 
	C1252.526245,593.222717 1275.527710,580.649780 1283.719116,554.297913 
	C1291.591431,528.972717 1291.190430,503.132538 1283.795532,477.574371 
	C1282.840210,474.272308 1281.072021,471.138336 1279.298584,468.153320 
	C1274.878662,460.713745 1268.133057,457.601196 1259.015137,458.124908 
	C1259.015137,460.826324 1259.015137,463.449524 1259.015259,466.072723 
	C1259.016968,496.065125 1258.814453,526.060242 1259.205444,556.047485 
	C1259.277100,561.547180 1261.758423,567.015442 1263.172485,572.678528 
	C1253.452515,572.678528 1242.913208,572.678528 1232.648438,572.678528 
	C1233.792969,568.160706 1234.976074,563.490906 1236.173950,558.001587 
	C1236.126221,555.787109 1236.063965,554.392151 1236.001709,552.997253 
z"/>
<path fill="#050504" opacity="1.000000" stroke="none" 
	d="
M608.147461,557.165649 
	C621.042358,563.230286 631.560791,557.453613 631.757935,543.737915 
	C632.174561,514.747498 632.051880,485.746185 631.783875,456.752716 
	C631.745789,452.631622 629.659912,448.529480 628.436951,444.112122 
	C638.697571,444.112122 649.465271,444.112122 661.046814,444.112122 
	C655.385986,450.893616 655.718567,458.390320 655.747375,465.919952 
	C655.846802,491.916718 655.780640,517.914124 655.791565,543.911255 
	C655.799744,563.352783 643.519958,577.705322 624.128479,579.856506 
	C617.652466,580.575012 610.769531,580.278931 604.411194,578.893127 
	C587.416565,575.189209 577.260559,561.784180 577.240540,544.241821 
	C577.209656,517.244629 577.416077,490.245392 577.121338,463.251434 
	C577.051453,456.850952 575.391235,450.467896 574.444336,443.951813 
	C584.082275,443.951813 594.973145,443.951813 606.744568,443.951813 
	C599.105835,454.152924 601.498413,465.525146 601.386902,476.446350 
	C601.165833,498.107941 601.325195,519.773926 601.407898,541.437866 
	C601.430725,547.427490 602.620117,553.051514 608.147461,557.165649 
z"/>
<path fill="#070606" opacity="1.000000" stroke="none" 
	d="
M743.010193,473.003174 
	C742.929504,492.801239 742.842407,512.599304 742.771790,532.397339 
	C742.746826,539.387268 742.503540,546.389587 742.835449,553.363586 
	C743.136047,559.681458 744.083923,565.968567 744.781738,572.604492 
	C738.631348,572.604492 731.286316,572.604492 723.662659,572.604492 
	C715.101318,551.809814 706.424194,530.733704 697.745483,509.653778 
	C697.064636,509.946014 696.577698,510.057068 696.577515,510.168976 
	C696.548401,527.109253 696.378662,544.052856 696.694153,560.987427 
	C696.764771,564.778809 698.540833,568.538452 699.726318,573.053833 
	C697.998108,573.053833 695.934082,573.260132 693.924011,573.017944 
	C685.522644,572.005798 679.944031,575.904053 674.859863,582.286987 
	C671.824585,586.097656 666.993469,588.508606 662.854797,591.383545 
	C662.026672,591.958862 660.678833,591.786133 658.913513,592.060364 
	C662.414673,586.563171 665.571045,581.607361 669.181458,576.249878 
	C670.571899,574.458374 671.508179,573.068420 672.444458,571.678467 
	C672.444458,571.678467 672.580383,571.550415 672.834717,571.206482 
	C674.297180,565.924133 676.490234,560.997620 676.550049,556.045288 
	C676.882385,528.507080 676.838623,500.961090 676.525696,473.422302 
	C676.482117,469.591583 674.239441,465.785889 673.014771,461.968628 
	C672.973999,461.791138 672.933289,461.613647 672.952087,460.769562 
	C680.971069,459.914734 688.930176,459.692047 696.890808,459.606689 
	C697.500305,459.600159 698.120239,460.563812 698.735352,461.076538 
	C704.286560,475.113464 709.813599,489.160065 715.402283,503.182068 
	C717.324463,508.004700 719.400696,512.765930 722.240723,517.400635 
	C721.161255,498.245636 726.202332,478.897400 719.359314,459.678772 
	C728.270813,459.678772 737.424988,459.678772 746.728760,459.678772 
	C745.474487,463.593475 744.250000,467.415344 742.944214,471.863098 
	C742.911987,472.660370 742.961060,472.831757 743.010193,473.003174 
M721.955994,518.507874 
	C722.170898,518.579468 722.385742,518.651123 722.600647,518.722778 
	C722.525940,518.498596 722.451172,518.274353 721.955994,518.507874 
z"/>
<path fill="#060505" opacity="1.000000" stroke="none" 
	d="
M1073.038330,564.990662 
	C1073.809204,567.459900 1074.580078,569.929199 1075.453613,572.727417 
	C1068.048218,572.727417 1060.800415,572.727417 1053.512817,572.727417 
	C1044.888062,551.827026 1036.244019,530.879944 1027.409058,509.470154 
	C1024.230835,519.612488 1026.494873,564.726990 1030.580933,572.540649 
	C1021.351257,572.540649 1012.356750,572.540649 1003.121582,572.540649 
	C1010.309998,556.523438 1006.315552,539.455811 1006.908875,522.767090 
	C1007.505981,505.969421 1007.262268,489.128784 1006.877686,472.318604 
	C1006.784058,468.228088 1004.694214,464.183258 1003.299683,459.345154 
	C1010.764587,459.345154 1018.483093,459.217377 1026.185791,459.508270 
	C1027.139771,459.544312 1028.305054,461.684723 1028.874146,463.056702 
	C1036.568359,481.605560 1044.174194,500.191040 1052.454346,518.698120 
	C1051.154663,499.195374 1056.247681,479.415924 1049.483154,459.709625 
	C1057.959351,459.709625 1066.793823,459.709625 1076.236938,459.709625 
	C1075.139404,462.614838 1074.073853,465.435303 1072.867432,469.013184 
	C1072.525146,471.575714 1072.150513,473.380554 1072.148193,475.185852 
	C1072.113037,502.657379 1072.103394,530.128967 1072.168213,557.600342 
	C1072.174072,560.064453 1072.734985,562.527283 1073.038330,564.990662 
z"/>
<path fill="#060605" opacity="1.000000" stroke="none" 
	d="
M865.127991,504.099670 
	C870.757263,504.094086 875.899414,504.094086 881.896790,504.094086 
	C880.553711,489.206085 884.639709,474.355408 877.574036,459.761139 
	C887.821899,459.761139 897.766479,459.761139 908.617737,459.761139 
	C902.095520,468.417053 903.858154,477.910950 903.801758,487.080475 
	C903.668518,508.733032 903.529907,530.389709 903.840698,552.038391 
	C903.937866,558.809631 905.464172,565.560425 906.371887,572.596252 
	C897.862976,572.596252 888.016113,572.596252 877.785950,572.596252 
	C885.116150,556.544861 880.279724,539.694641 881.985962,522.890503 
	C874.321411,522.890503 867.432861,522.890503 859.913696,522.890503 
	C861.716492,539.562317 856.890442,556.349792 864.102234,572.679932 
	C854.410095,572.679932 844.869995,572.679932 835.382141,572.679932 
	C842.203064,553.401123 837.736633,533.356689 838.875183,513.657959 
	C839.345215,505.524384 839.080688,497.335632 838.874634,489.178955 
	C838.626160,479.346252 840.824097,469.174530 834.188538,459.615082 
	C844.724915,459.615082 854.227661,459.615082 864.390442,459.615082 
	C856.938416,473.962952 861.616211,488.931763 859.853210,503.775116 
	C861.773865,503.907562 863.207336,504.006409 865.127991,504.099670 
z"/>
<path fill="#070606" opacity="1.000000" stroke="none" 
	d="
M1130.137695,497.726624 
	C1130.175781,492.515564 1131.181885,487.563965 1130.602051,482.805664 
	C1130.060791,478.364197 1126.560303,475.673248 1121.762451,475.499542 
	C1117.176880,475.333466 1113.871704,477.567993 1112.749146,481.850281 
	C1111.243408,487.595520 1109.608032,493.504333 1109.482544,499.373993 
	C1109.191284,512.994263 1109.646606,526.637329 1110.092163,540.261658 
	C1110.198608,543.518494 1111.142700,546.847961 1112.248657,549.948914 
	C1113.927979,554.657227 1117.692993,556.421021 1122.560425,555.949097 
	C1127.424072,555.477600 1130.399536,552.462463 1130.743408,547.948364 
	C1131.257202,541.202209 1130.876831,534.387817 1130.876831,526.810974 
	C1127.718140,527.307678 1124.920654,527.747559 1121.685425,528.256287 
	C1121.685425,522.683716 1121.685425,516.959717 1121.685425,510.864197 
	C1132.391846,510.864197 1143.433105,510.864197 1154.015991,510.864197 
	C1152.151001,531.641663 1151.809814,551.998169 1154.320557,572.518372 
	C1144.208740,574.998718 1140.631958,573.684387 1138.860718,567.032532 
	C1133.665161,569.370422 1128.579224,572.779114 1123.024048,573.937378 
	C1109.323364,576.793762 1097.001587,569.427734 1092.142456,556.285950 
	C1086.856445,541.989258 1085.588745,527.017334 1086.665527,512.025757 
	C1087.458130,500.990326 1088.817871,489.757141 1091.867188,479.171570 
	C1098.362183,456.624298 1120.793701,453.771454 1136.702271,460.422791 
	C1143.365967,463.208771 1147.561768,468.782257 1149.656616,475.500122 
	C1151.366089,480.981567 1152.076904,486.774414 1153.268677,492.616486 
	C1145.192383,494.543732 1137.802856,496.307098 1130.137695,497.726624 
z"/>
<path fill="#070605" opacity="1.000000" stroke="none" 
	d="
M978.012390,572.989929 
	C973.684631,572.972595 969.853516,572.962646 966.022888,572.917419 
	C965.754639,572.914307 965.489563,572.649658 964.622437,572.184387 
	C970.663330,565.053589 966.645874,557.501648 965.601929,549.660156 
	C958.274963,549.660156 951.043884,549.660156 943.334167,549.660156 
	C942.652954,557.377197 938.650208,564.877441 944.526245,572.717773 
	C934.583496,572.717773 925.408691,572.717773 916.616272,572.717773 
	C925.287720,549.085999 927.966492,524.073547 933.908264,499.856903 
	C936.007202,491.302551 937.751404,482.635406 939.098816,473.933258 
	C939.780823,469.528778 939.218140,464.931580 939.218140,459.812805 
	C949.458374,459.812805 960.764771,459.812805 972.242310,459.812805 
	C968.257935,472.560883 974.163025,484.263397 976.386047,496.255127 
	C980.352600,517.651978 985.291504,538.872498 990.063293,560.112976 
	C991.016968,564.358276 993.041321,568.363098 994.761597,572.988831 
	C989.347595,572.988831 983.928345,572.988831 978.012390,572.989929 
M958.090149,505.294952 
	C957.056335,499.546509 956.022583,493.798065 954.988831,488.049622 
	C954.794373,488.095123 954.599976,488.140625 954.405579,488.186127 
	C951.610840,502.952484 948.816162,517.718811 945.977905,532.715149 
	C951.733154,532.715149 957.149902,532.715149 963.166321,532.715149 
	C961.474243,523.636658 959.844482,514.892334 958.090149,505.294952 
z"/>
<path fill="#070605" opacity="1.000000" stroke="none" 
	d="
M766.473633,473.516205 
	C775.183960,459.466125 788.551331,454.329132 803.975586,458.860718 
	C817.677795,462.886353 825.200623,475.737732 824.913391,495.119202 
	C817.526672,496.899963 810.013123,498.711334 801.858765,500.677155 
	C802.362732,498.142548 803.189941,495.831207 803.198914,493.516632 
	C803.213562,489.764740 803.111450,485.915466 802.286987,482.282410 
	C801.312866,477.990021 798.280212,475.333008 793.615356,475.565460 
	C789.153198,475.787872 785.890137,478.196777 785.076904,482.602173 
	C783.785400,489.598236 782.217102,496.695831 782.230286,503.747711 
	C782.255920,517.512390 783.233337,531.278503 783.982422,545.034973 
	C784.086975,546.953796 784.919312,548.924377 785.782166,550.691650 
	C787.653870,554.525635 790.902527,556.243652 795.147156,555.937500 
	C799.215027,555.644043 801.868896,553.137634 802.234192,549.398804 
	C802.788513,543.726624 802.524170,537.969666 802.495483,532.249268 
	C802.489319,531.016907 802.006226,529.786865 801.631104,528.033752 
	C809.745178,530.053101 817.244812,531.919556 825.128296,533.881531 
	C824.971252,544.309204 824.167847,554.540222 818.270020,563.507202 
	C811.816772,573.318726 801.715637,575.636047 791.072083,574.518250 
	C774.453247,572.772827 765.912109,564.639099 762.257507,547.507629 
	C757.723083,526.251831 757.615784,504.899475 762.845581,483.687012 
	C763.674561,480.324341 765.121704,477.113983 766.473633,473.516205 
z"/>
<path fill="#070606" opacity="1.000000" stroke="none" 
	d="
M1213.528809,515.915649 
	C1213.530518,519.322876 1213.530518,522.251770 1213.530518,524.053101 
	C1206.085083,523.261108 1199.212891,522.530029 1191.842896,521.745972 
	C1191.842896,533.035217 1191.842896,543.281616 1191.842896,554.207581 
	C1201.599976,553.092407 1212.122070,557.266724 1221.663818,549.482056 
	C1221.663818,557.371582 1221.663818,564.860901 1221.663818,572.701416 
	C1203.261597,572.701416 1184.749390,572.701416 1165.403564,572.701416 
	C1172.172852,563.435364 1169.869751,553.228149 1169.990479,543.438904 
	C1170.251221,522.293518 1170.290283,501.139954 1169.980591,479.996185 
	C1169.883911,473.388702 1168.379028,466.801788 1167.462158,459.772217 
	C1184.510498,459.772217 1202.956543,459.772217 1221.601074,459.772217 
	C1221.601074,466.896271 1221.601074,473.935608 1221.601074,481.661621 
	C1212.213379,474.647278 1201.984741,478.645233 1191.859497,477.362854 
	C1191.859497,486.690308 1191.859497,495.590424 1191.859497,505.563416 
	C1198.909546,504.755341 1205.963623,503.946777 1213.527100,503.079834 
	C1213.527100,506.581604 1213.527100,511.009521 1213.528809,515.915649 
z"/>
<path fill="#040303" opacity="1.000000" stroke="none" 
	d="
M334.767151,571.940125 
	C334.090607,572.291565 333.415985,572.944885 332.737183,572.949280 
	C322.587891,573.014709 312.438049,572.994507 301.838715,572.994507 
	C302.257233,571.755676 302.575256,570.901062 302.835541,570.029236 
	C304.145203,565.642517 306.514832,561.263611 306.565308,556.859619 
	C306.893585,528.218628 306.719360,499.571838 306.692169,470.926941 
	C306.691406,470.131500 306.494446,469.336212 306.365906,468.366852 
	C298.610413,467.872711 290.958679,466.828918 283.884979,473.914642 
	C283.884979,465.642761 283.836548,458.752777 283.905792,451.863983 
	C283.939484,448.510254 286.530670,449.066620 288.632904,449.065033 
	C306.619629,449.051636 324.606323,449.069244 342.593048,449.051575 
	C353.112762,449.041229 353.118317,449.019775 353.148590,459.606506 
	C353.160492,463.770020 353.141083,467.933624 352.712341,472.604584 
	C345.674164,467.513062 337.980652,467.110107 329.735504,468.447296 
	C329.625946,469.065002 329.417816,469.694489 329.416504,470.324463 
	C329.356873,499.052429 329.195038,527.781372 329.411377,556.507385 
	C329.441193,560.466553 331.356873,564.411438 332.399445,568.362976 
	C332.399445,568.362976 332.465546,568.491150 332.599426,568.822876 
	C333.344666,569.879211 333.956085,570.603821 334.567505,571.328430 
	C334.567505,571.328430 334.629791,571.376526 334.591522,571.552734 
	C334.553253,571.728943 334.767151,571.940125 334.767151,571.940125 
z"/>
<path fill="#CAC8C3" opacity="1.000000" stroke="none" 
	d="
M450.389160,459.151428 
	C452.953979,456.936859 455.875641,454.861359 459.923065,451.986115 
	C460.994324,457.199768 462.582825,461.422272 462.616730,465.657227 
	C462.862671,496.381866 462.798035,527.109009 462.810730,557.835327 
	C462.811066,558.652344 462.573395,559.469421 462.247375,560.649231 
	C461.678680,555.363586 461.310913,549.715088 460.939484,544.066895 
	C460.658508,539.794312 460.147552,535.523071 460.127838,531.249451 
	C460.035004,511.127258 460.096252,491.004456 460.061188,470.881897 
	C460.044281,461.180237 460.002960,461.180298 450.389160,459.151428 
z"/>
<path fill="#D1CDC8" opacity="1.000000" stroke="none" 
	d="
M672.996765,462.345184 
	C674.239441,465.785889 676.482117,469.591583 676.525696,473.422302 
	C676.838623,500.961090 676.882385,528.507080 676.550049,556.045288 
	C676.490234,560.997620 674.297180,565.924133 672.871094,571.120483 
	C673.299194,565.877380 673.940552,560.375854 674.594727,554.875854 
	C674.730652,553.733154 675.046631,552.596985 675.054138,551.456360 
	C675.105591,543.660828 675.250366,535.861389 675.071411,528.070007 
	C674.802734,516.373718 674.315674,504.682281 673.877075,492.990417 
	C673.655884,487.094971 673.414062,481.198029 673.023315,475.312286 
	C672.872620,473.041901 672.014771,470.805298 671.975403,468.544678 
	C671.941711,466.610107 672.617065,464.663208 672.996765,462.345184 
z"/>
<path fill="#CAC8C3" opacity="1.000000" stroke="none" 
	d="
M332.550354,567.989807 
	C331.356873,564.411438 329.441193,560.466553 329.411377,556.507385 
	C329.195038,527.781372 329.356873,499.052429 329.416504,470.324463 
	C329.417816,469.694489 329.625946,469.065002 329.735504,468.447296 
	C337.980652,467.110107 345.674164,467.513062 352.650482,473.071655 
	C351.757599,474.194305 350.502960,475.357300 349.046112,476.707733 
	C345.740723,472.527740 341.857513,470.172150 336.533691,470.894043 
	C332.957306,471.379028 330.772217,472.649323 330.806549,476.820282 
	C330.939117,492.930054 330.620209,509.046173 330.929260,525.151062 
	C331.200989,539.312378 332.086700,553.461914 332.550354,567.989807 
z"/>
<path fill="#D1CDC8" opacity="1.000000" stroke="none" 
	d="
M1073.262695,564.719849 
	C1072.734985,562.527283 1072.174072,560.064453 1072.168213,557.600342 
	C1072.103394,530.128967 1072.113037,502.657379 1072.148193,475.185852 
	C1072.150513,473.380554 1072.525146,471.575714 1072.888550,469.391327 
	C1073.335083,470.940735 1073.863037,472.868988 1073.866943,474.798279 
	C1073.917969,499.768005 1073.886841,524.737854 1073.898193,549.707703 
	C1073.899902,553.221863 1072.882446,557.184448 1077.673340,558.522522 
	C1076.126831,560.712036 1074.807007,562.580566 1073.262695,564.719849 
z"/>
<path fill="#D1CDC8" opacity="1.000000" stroke="none" 
	d="
M698.990845,460.881165 
	C698.120239,460.563812 697.500305,459.600159 696.890808,459.606689 
	C688.930176,459.692047 680.971069,459.914734 672.802917,460.540741 
	C672.823853,458.566467 675.126038,457.163849 678.133362,457.262512 
	C684.398743,457.468109 690.675598,457.407166 696.929993,457.764709 
	C697.755127,457.811890 698.476746,459.667664 698.990845,460.881165 
z"/>
<path fill="#D1CDC8" opacity="1.000000" stroke="none" 
	d="
M672.098999,571.560425 
	C671.508179,573.068420 670.571899,574.458374 669.328003,575.945557 
	C669.931519,574.509277 670.842529,572.975830 672.098999,571.560425 
z"/>
<path fill="#CAC8C3" opacity="1.000000" stroke="none" 
	d="
M334.646667,570.945435 
	C333.956085,570.603821 333.344666,569.879211 332.643494,568.879883 
	C333.277740,569.257629 334.001801,569.909973 334.646667,570.945435 
z"/>
<path fill="#FDF9F5" opacity="1.000000" stroke="none" 
	d="
M441.076965,552.845581 
	C440.691711,551.634033 440.611725,550.202271 440.657410,548.355591 
	C440.982788,549.502319 441.182495,551.063843 441.076965,552.845581 
z"/>
<path fill="#FDF9F5" opacity="1.000000" stroke="none" 
	d="
M1235.735107,553.229004 
	C1236.063965,554.392151 1236.126221,555.787109 1236.088379,557.590576 
	C1235.814941,556.486267 1235.641724,554.973511 1235.735107,553.229004 
z"/>
<path fill="#D1CDC8" opacity="1.000000" stroke="none" 
	d="
M670.420288,460.768951 
	C670.457703,460.743683 670.382874,460.794250 670.420288,460.768951 
z"/>
<path fill="#FDF9F5" opacity="1.000000" stroke="none" 
	d="
M441.019165,504.926117 
	C440.768311,504.855408 440.690735,504.679504 440.714722,504.233643 
	C440.941681,504.249451 441.067078,504.535187 441.019165,504.926117 
z"/>
<path fill="#FDF9F5" opacity="1.000000" stroke="none" 
	d="
M440.989044,500.935913 
	C440.741028,500.859619 440.671326,500.680237 440.705139,500.231384 
	C440.928192,500.252167 441.047791,500.542480 440.989044,500.935913 
z"/>
<path fill="#FDF9F5" opacity="1.000000" stroke="none" 
	d="
M743.166504,472.917114 
	C742.961060,472.831757 742.911987,472.660370 742.985229,472.251068 
	C743.249573,472.191406 743.408325,472.360077 743.519958,472.555634 
	C743.543396,472.596558 743.393127,472.736633 743.166504,472.917114 
z"/>
<path fill="#CAC8C3" opacity="1.000000" stroke="none" 
	d="
M334.929382,571.895264 
	C334.767151,571.940125 334.553253,571.728943 334.607452,571.588745 
	C334.661652,571.448547 335.106079,571.448364 335.106079,571.448364 
	C335.106079,571.448364 335.091644,571.850403 334.929382,571.895264 
z"/>
<path fill="#F4EAE0" opacity="1.000000" stroke="none" 
	d="
M722.166260,518.279053 
	C722.451172,518.274353 722.525940,518.498596 722.600647,518.722778 
	C722.385742,518.651123 722.170898,518.579468 722.166260,518.279053 
z"/>
<path fill="#EAE5DF" opacity="1.000000" stroke="none" 
	d="
M958.152466,505.721497 
	C959.844482,514.892334 961.474243,523.636658 963.166321,532.715149 
	C957.149902,532.715149 951.733154,532.715149 945.977905,532.715149 
	C948.816162,517.718811 951.610840,502.952484 954.405579,488.186127 
	C954.599976,488.140625 954.794373,488.095123 954.988831,488.049622 
	C956.022583,493.798065 957.056335,499.546509 958.152466,505.721497 
z"/>
</svg>